<?xml version="1.0" encoding="utf-8"?>
<svg version="1.1" id="layer" xmlns="http://www.w3.org/2000/svg" xmlns:xlink="http://www.w3.org/1999/xlink" x="0px" y="0px"
	 viewBox="0 0 450 450" style="enable-background:new 0 0 450 450;" xml:space="preserve">
<rect style="fill:#FFFFFF;" width="450" height="450"/>
<g>
	<path style="fill:#57D7ED;" d="M134.787,116.117c0.903-2.71,0.602-6.925-2.409-6.624c-3.011,0.301-25.895,13.249-39.746,26.497
		C78.781,149.239,134.787,116.117,134.787,116.117z"/>
	<path style="fill:#00C5AD;" d="M183.566,151.648c3.613-7.528,0-27.401-5.119-34.928c-5.119-7.528-10.238-0.903-12.345,4.517
		c-2.108,5.42-8.13,10.539-17.464,3.011c-9.334-7.528-14.152-14.152-22.583-9.635c-8.431,4.517-32.218,19.873-42.456,22.884
		c-10.238,3.011-31.315,1.204-31.616,9.334c-0.301,8.13,1.204,10.84,11.141,11.442c9.937,0.602,68.652-0.903,68.652-0.903
		L183.566,151.648z"/>
	<g>
		<path style="fill:#364A5D;" d="M166.896,123.345c-2.108,5.42-8.924,10.437-18.258,2.909c-9.334-7.528-14.152-14.152-22.583-9.635
			c-3.926,2.103-11.204,5.599-18.894,9.039c7.684-4.472,14.961-8.939,18.894-11.046c8.431-4.517,13.249,2.108,22.583,9.635
			c9.334,7.528,15.356,2.409,17.464-3.011c2.058-5.293,6.989-11.727,11.986-5.015C173.457,112.107,168.783,118.493,166.896,123.345z
			"/>
	</g>
	<path style="fill:#57D7ED;" d="M170.625,126.972c1.226-5.751,1.425-14.487,9.896-6.359c3.925,9.04,6.145,24.577,3.045,31.035
		l-43.34-0.926C166.707,141.578,168.329,137.742,170.625,126.972z"/>
	<path style="fill:#FCE179;" d="M54.392,160.179c1.351,1.858,5.049,3.456,10.187,4.773c0.348-0.629,0.682-1.357,1.054-2.163
		c0.162,0.973,0.556,1.909,1.124,2.684c4.907,1.104,10.857,1.983,17.217,2.624c0.377-0.659,0.732-1.433,1.131-2.298
		c0.149,0.896,0.494,1.764,0.991,2.502c4.627,0.423,9.427,0.721,14.166,0.891c0.443-0.717,0.844-1.594,1.303-2.589
		c0.161,0.964,0.55,1.894,1.109,2.665c5.103,0.136,10.086,0.12,14.649-0.055c0.464-0.018,0.937-0.033,1.414-0.047
		c0.611-0.799,1.106-1.884,1.697-3.165c0.192,1.153,0.709,2.257,1.457,3.098c6.765-0.09,14.592,0.097,22.52,0.216
		c0.336-0.542,0.932-0.906,1.617-0.906c0.702,0,1.309,0.384,1.64,0.949c1.512,0.018,3.024,0.032,4.527,0.039
		c0.325-0.586,0.943-0.988,1.661-0.988c0.719,0,1.338,0.403,1.663,0.991c1.418-0.004,2.824-0.015,4.213-0.036
		c0.292-0.679,0.966-1.156,1.752-1.156c0.756,0,1.403,0.443,1.711,1.08c1.304-0.037,2.588-0.085,3.846-0.145
		c0.172-0.876,0.943-1.537,1.87-1.537c0.847,0,1.556,0.555,1.805,1.319c1.286-0.093,2.537-0.202,3.747-0.329
		c0.151-0.902,0.93-1.592,1.875-1.592c0.777,0,1.443,0.467,1.74,1.134c6.077-0.914,10.751-2.442,13.014-4.948
		c-2.71-8.431-3.914-15.959-6.022-15.959c-9.033,0-37.036,0.602-46.671,3.011c-9.635,2.409-39.746,7.528-49.08,7.227
		c-9.334-0.301-34.326-2.108-36.434-4.818c-0.903-4.516-0.903-4.516-0.903-4.516S49.574,153.555,54.392,160.179z M179.179,155.49
		l1.605-0.34c1.69-0.358,3.35,0.721,3.708,2.411c0.358,1.69-0.721,3.35-2.411,3.708l-1.605,0.34c-1.69,0.358-3.35-0.721-3.708-2.411
		C176.41,157.509,177.489,155.849,179.179,155.49z M166.911,160.135c-0.149-1.721,1.125-3.237,2.846-3.386l1.635-0.142
		c1.721-0.149,3.237,1.125,3.386,2.846c0.149,1.721-1.125,3.237-2.846,3.386l-1.635,0.142
		C168.576,163.13,167.06,161.856,166.911,160.135z M156.772,160.693c-0.082-1.725,1.251-3.19,2.976-3.272l1.639-0.078
		c1.725-0.082,3.19,1.251,3.272,2.976s-1.251,3.19-2.976,3.272l-1.639,0.078C158.319,163.751,156.854,162.419,156.772,160.693z
		 M146.078,160.684c-0.012-1.727,1.379-3.137,3.106-3.149l1.641-0.011c1.727-0.012,3.137,1.379,3.149,3.106
		c0.012,1.727-1.379,3.137-3.106,3.149l-1.641,0.011C147.5,163.802,146.09,162.411,146.078,160.684z M110.598,164.595
		c0-1.663,1.348-3.011,3.011-3.011s3.011,1.348,3.011,3.011c0,1.663-1.348,3.011-3.011,3.011S110.598,166.258,110.598,164.595z
		 M102.569,164.595c0-1.663,1.348-3.011,3.011-3.011c1.663,0,3.011,1.348,3.011,3.011c0,1.663-1.348,3.011-3.011,3.011
		C103.917,167.606,102.569,166.258,102.569,164.595z M94.539,164.595c0-1.663,1.348-3.011,3.011-3.011
		c1.663,0,3.011,1.348,3.011,3.011c0,1.663-1.348,3.011-3.011,3.011C95.887,167.606,94.539,166.258,94.539,164.595z M86.51,164.595
		c0-1.663,1.348-3.011,3.011-3.011c1.663,0,3.011,1.348,3.011,3.011c0,1.663-1.348,3.011-3.011,3.011
		C87.858,167.606,86.51,166.258,86.51,164.595z M79.329,163.894c0-1.44,1.168-2.608,2.608-2.608s2.608,1.168,2.608,2.608
		s-1.168,2.608-2.608,2.608S79.329,165.334,79.329,163.894z M72.892,163.041c0-1.229,0.996-2.224,2.224-2.224
		c1.229,0,2.225,0.996,2.225,2.224c0,1.229-0.996,2.225-2.225,2.225C73.888,165.266,72.892,164.27,72.892,163.041z M67.415,162.072
		c0-0.928,0.753-1.681,1.681-1.681c0.928,0,1.681,0.753,1.681,1.681c0,0.928-0.753,1.681-1.681,1.681
		C68.167,163.753,67.415,163,67.415,162.072z"/>
	<path style="fill:#364A5D;" d="M62.41,140.502c4.674,1.267,11.167,2.695,17.576,3.016c12.044,0.602,46.671-21.981,50.586-23.787
		c3.914-1.807,15.289,11.857,21.077,17.163c7.227,6.624-61.291,13.478-68.652,13.55c-10.338,0.1-19.305-5.08-26.674-8.383
		C58.02,141.378,60.111,140.887,62.41,140.502z"/>
	<path style="fill:#FCE179;" d="M82.985,149.239c3.363-0.033,20.041-1.536,36.109-3.795c28.3-3.979,31.498-6.964,31.856-7.543
		c-0.024-0.029-0.06-0.07-0.114-0.119c-1.477-1.354-3.31-3.242-5.251-5.239c-4.552-4.687-11.433-11.771-14.212-11.771
		c-0.121,0-0.221,0.018-0.296,0.052c-0.748,0.345-2.948,1.653-5.733,3.308c-11.254,6.687-34.671,20.603-44.87,20.603h-0.001
		c-0.186,0-0.369-0.004-0.547-0.014c-6.517-0.326-13.232-1.651-18.878-3.972c-0.983,0.169-2.272,0.547-3.081,0.743
		c0.266,0.126,2.237,1.042,2.509,1.171c6.526,3.083,13.922,6.578,22.224,6.578L82.985,149.239z"/>
	<path style="fill:#364A5D;" d="M172.231,129.381c-2.1,9.847-3.64,13.898-24.127,21.509l-7.878-0.168
		c26.481-9.143,28.103-12.979,30.399-23.749c1.226-5.751,1.425-14.487,9.896-6.359c0.21,0.483,0.413,0.988,0.613,1.505
		C173.643,115.614,173.407,123.865,172.231,129.381z"/>
	<g>
		<path style="fill:#474747;" d="M123.399,120.823c0.359,0.539,1.333,0.521,2.175-0.039c0.843-0.561,1.236-1.452,0.877-1.991
			c-0.359-0.539-1.332-0.521-2.175,0.039C123.433,119.393,123.04,120.284,123.399,120.823z"/>
		<path style="fill:#474747;" d="M111.958,127.219c0.359,0.539,1.333,0.521,2.175-0.039c0.843-0.561,1.236-1.452,0.877-1.991
			c-0.359-0.539-1.333-0.522-2.175,0.039C111.992,125.789,111.599,126.68,111.958,127.219z"/>
		<path style="fill:#474747;" d="M102.398,132.112c0.359,0.539,1.332,0.521,2.175-0.039c0.843-0.561,1.235-1.452,0.877-1.991
			c-0.359-0.539-1.332-0.521-2.175,0.039C102.432,130.682,102.039,131.573,102.398,132.112z"/>
		<path style="fill:#474747;" d="M92.826,136.725c0.206,0.464,0.961,0.578,1.686,0.256c0.725-0.323,1.145-0.96,0.938-1.424
			c-0.206-0.464-0.961-0.578-1.686-0.256C93.04,135.624,92.62,136.261,92.826,136.725z"/>
		<path style="fill:#474747;" d="M85.901,139.435c0.206,0.464,0.961,0.578,1.686,0.256c0.725-0.323,1.145-0.96,0.938-1.424
			c-0.206-0.464-0.961-0.578-1.686-0.256C86.114,138.333,85.694,138.971,85.901,139.435z"/>
	</g>
	<path style="fill:#364A5D;" d="M112.214,119.071c-0.032,0.617,0.57,1.149,1.345,1.189l11.026,0.572
		c0.775,0.04,1.429-0.427,1.461-1.044l0,0c0.032-0.617-0.57-1.149-1.345-1.189l-11.026-0.572
		C112.9,117.987,112.246,118.454,112.214,119.071L112.214,119.071z"/>
	<path style="fill:#364A5D;" d="M121.484,113.466c-0.504-0.319-1.249-0.046-1.664,0.61l-7.393,11.085
		c-0.415,0.656-0.343,1.445,0.161,1.764l0,0c0.504,0.319,1.249,0.046,1.664-0.61l7.393-11.085
		C122.06,114.574,121.988,113.784,121.484,113.466L121.484,113.466z"/>
	<path style="fill:#364A5D;" d="M104.38,125.799c-0.029,0.603,0.311,1.049,1.086,1.086l7.327,0.161
		c0.775,0.037,1.427-0.421,1.456-1.024l0,0c0.029-0.603-0.576-1.121-1.351-1.158l-6.95-0.043
		C105.172,124.784,104.409,125.196,104.38,125.799L104.38,125.799z"/>
	<path style="fill:#364A5D;" d="M111.336,119.642c-0.499-0.362-1.273-0.147-1.729,0.481l-6.752,9.878
		c-0.456,0.628-0.421,1.431,0.078,1.793l0,0c0.499,0.362,1.273,0.147,1.729-0.481l6.752-9.878
		C111.869,120.807,111.835,120.004,111.336,119.642L111.336,119.642z"/>
	<path style="fill:#364A5D;" d="M93.064,132.055c0.046,0.553,0.532,0.964,1.085,0.918l9.433-0.987
		c0.553-0.046,0.964-0.532,0.918-1.085l0,0c-0.046-0.553-0.532-0.964-1.085-0.918l-9.433,0.987
		C93.429,131.017,93.018,131.502,93.064,132.055L93.064,132.055z"/>
	<path style="fill:#364A5D;" d="M100.544,128.109c-0.494-0.26-1.156-0.132-1.489,0.28l-5.94,6.707
		c-0.333,0.413-0.265,1.02,0.161,1.364l0,0c0.437,0.353,1.082,0.296,1.431-0.136l6.133-6.945
		C101.189,128.948,101.051,128.376,100.544,128.109L100.544,128.109z"/>
	<path style="fill:#364A5D;" d="M86.779,135.384c-0.175,0.447,0.096,0.878,0.624,0.951l6.002,0.436
		c0.723,0.096,1.394-0.29,1.471-0.846l0,0c0.074-0.536-0.44-1.003-1.123-1.059l-5.76-0.181
		C87.483,134.643,86.948,134.95,86.779,135.384L86.779,135.384z"/>
	<path style="fill:#364A5D;" d="M92.295,132.839c-0.468-0.136-1.071-0.014-1.374,0.272l-4.6,4.712
		c-0.435,0.414-0.495,1.047-0.101,1.424l0,0c0.421,0.403,1.172,0.344,1.638-0.142l4.79-5.425
		C92.961,133.359,92.788,132.982,92.295,132.839L92.295,132.839z"/>
	<g>
		<path style="fill:#364A5D;" d="M139.647,153.148c-9.885,2.243-40.774,6.842-50.35,6.38c-9.576-0.462-35.214-2.699-37.376-5.446
			c-0.233-1.137-0.407-1.989-0.537-2.627c0.038-2.054,0.598-3.321,0.598-3.321s0,0,0.903,4.516c2.108,2.71,27.1,4.517,36.434,4.818
			c9.334,0.301,39.445-4.818,49.08-7.227c9.635-2.409,37.638-3.011,46.671-3.011c0.914,0,1.659,1.418,2.43,3.71
			C178.21,150.786,149.524,150.907,139.647,153.148z"/>
	</g>
	<g>
		<path style="fill:#57D7ED;" d="M91.748,144.974l-2.108-2.317c0.435-0.157,0.876-0.32,1.322-0.491l1.141,1.255l0.429-1.875
			c0.49-0.199,0.984-0.405,1.484-0.618l-0.841,3.672l3.241,3.563c-0.553,0.056-1.093,0.109-1.623,0.161l-1.974-2.169l-0.551,2.409
			c-0.47,0.043-0.927,0.085-1.371,0.124L91.748,144.974z"/>
		<path style="fill:#57D7ED;" d="M100.399,143.616l-3.682-3.882c0.417-0.19,0.834-0.382,1.254-0.579l2.778,2.929l1.102-4.813
			c0.506-0.253,1.012-0.509,1.518-0.768l-1.538,6.722l3.743,3.945c-0.547,0.063-1.089,0.125-1.627,0.186l-2.466-2.6l-0.674,2.947
			c-0.464,0.05-0.923,0.099-1.376,0.147L100.399,143.616z"/>
		<path style="fill:#57D7ED;" d="M127.953,144.103l-1.1-7.559l-10.215-7.3c0.584-0.336,1.155-0.667,1.717-0.994l8.137,5.815
			l-1.422-9.771c0.09-0.053,0.185-0.11,0.273-0.162c0.492-0.293,0.958-0.569,1.408-0.836l1.779,12.226l9.429,6.739
			c-0.762,0.16-1.568,0.324-2.421,0.491l-6.646-4.75l0.845,5.805C129.159,143.904,128.563,144.003,127.953,144.103z"/>
		<path style="fill:#57D7ED;" d="M111.074,139.345l-4.464-4.533c0.471-0.25,0.94-0.501,1.408-0.753l3.179,3.228l0.306-5.137
			c0.534-0.297,1.063-0.592,1.587-0.888l-0.447,7.493l6.57,6.671c-0.04,0.006-0.079,0.011-0.119,0.017
			c-0.59,0.083-1.181,0.165-1.772,0.245l-4.801-4.876l-0.331,5.552c-0.517,0.066-1.032,0.13-1.546,0.194L111.074,139.345z"/>
	</g>
</g>
<g>
	<path style="fill:#364A5D;" d="M83.34,232.204c0.654,1.072,2.054,1.411,3.126,0.757l51.706-31.544
		c1.072-0.654,1.411-2.054,0.757-3.126l0,0c-0.654-1.072-2.054-1.411-3.126-0.757l-51.706,31.544
		C83.024,229.732,82.685,231.132,83.34,232.204L83.34,232.204z"/>
	<path style="fill:#B8BDC0;" d="M186.009,238.531c1.741,3.773,1.161,13.351,0.29,13.641c-9.578,2.032-17.34,2.34-23.126,2.802
		c-13.633,1.09-68.628,1.915-85.546,0.319c-13.408-1.265-27.448-6.314-22.224-19.955
		C69.625,239.982,186.009,238.531,186.009,238.531z"/>
	<path style="fill:#DE5C47;" d="M186.729,240.23c3.613-7.528,0-27.401-5.119-34.928c-5.119-7.528-10.238-0.903-12.345,4.517
		c-2.108,5.42-8.13,10.539-17.464,3.011c-9.334-7.528-14.152-14.152-22.583-9.635c-8.431,4.517-32.218,19.873-42.456,22.884
		c-10.238,3.011-31.315,1.204-31.616,9.334c-0.301,8.13,1.204,10.84,11.141,11.442c9.937,0.602,68.652-0.903,68.652-0.903
		L186.729,240.23z"/>
	<g>
		<path style="fill:#364A5D;" d="M171.118,213.649c-2.486,5.42-9.591,10.539-20.602,3.011c-11.012-7.528-16.695-14.152-26.641-9.635
			c-1.875,0.852-4.396,2.089-7.331,3.556c5.232-3.102,9.829-5.862,12.674-7.386c8.431-4.517,13.249,2.108,22.583,9.635
			c9.334,7.528,15.356,2.409,17.464-3.011c2.108-5.42,7.226-12.044,12.345-4.517c0.2,0.294,0.397,0.613,0.592,0.944
			C177.439,204.128,173.123,209.278,171.118,213.649z"/>
	</g>
	<path style="fill:#FCE179;" d="M106.081,246.052c-1.458-0.974-3.124-1.559-4.665-2.488c-0.646-0.39-1.313-0.784-1.984-1.186
		c6.245-8.346,18.274-15.317,29.096-16.381l49.782-4.897l-3.522,7.539l-45.577,4.485c-7.186,0.822-18.227,5.89-22.826,12.312
		L106.081,246.052z"/>
	<path style="fill:#364A5D;" d="M172.758,233.447c2.612-5.889,2.704-11.895,3.232-18.19c0.214-2.556,0.344-6.118,3.324-6.925
		c1.815-0.492,2.869-0.377,4.183,0.436c4.041,8.971,6.38,24.902,3.232,31.462l-21.661,2.393
		C168.023,239.882,171.179,237.007,172.758,233.447z"/>
	<path style="fill:#FCE179;" d="M180.37,209.059c-2.98,0.807-3.397,4.416-3.611,6.972c-0.528,6.295-0.476,12.549-3.088,18.438
		c-1.296,2.922-3.346,5.488-5.671,7.831l-2.933,0.324c2.955-2.741,5.645-5.778,7.224-9.337c2.612-5.889,2.56-12.143,3.088-18.438
		c0.214-2.556,0.631-6.164,3.611-6.972c1.814-0.492,3.192,0.078,4.506,0.892c0.085,0.188,0.168,0.384,0.251,0.579
		C182.755,208.905,181.677,208.705,180.37,209.059z"/>
	<path style="fill:#364A5D;" d="M57.701,231.526c2.21,3.817,10.829,5.253,35.262,4.701c4.498,3.912,9.61,7.258,14.297,10.346
		c-16.684,0.328-35.699,0.602-40.973,0.282c-9.937-0.602-11.442-3.312-11.141-11.442C55.207,233.738,56.153,232.486,57.701,231.526z
		"/>
	<path style="fill:#FCE179;" d="M92.766,237.41c-23.178,0.524-33.205-0.075-36.362-4.85c0.366-0.377,0.796-0.723,1.298-1.034
		c2.21,3.817,10.829,5.253,35.262,4.701c4.498,3.912,9.61,7.258,14.297,10.346c-0.641,0.013-1.287,0.025-1.934,0.038
		C101.134,243.84,96.714,240.843,92.766,237.41z"/>
	<path style="fill:#364A5D;" d="M144.755,206.87c-9.641,7.039-42.194,26.854-48.135,24.164c-4.628-2.096-7.242-3.807-8.797-5.296
		c1.944-0.666,4.276-1.689,6.837-2.94c1.88,1.064,3.939,1.812,5.631,1.373c2.808-0.728,28.343-16.707,36.835-22.049
		C139.637,202.87,142.05,204.615,144.755,206.87z"/>
	<path style="fill:#474747;" d="M133.63,209.066c0.449,0.802,1.885,0.852,3.207,0.112s2.03-1.99,1.581-2.792
		s-1.885-0.852-3.207-0.112C133.889,207.013,133.181,208.264,133.63,209.066z"/>
	<path style="fill:#474747;" d="M126.065,213.467c0.368,0.699,1.6,0.774,2.752,0.168c1.152-0.606,1.788-1.664,1.42-2.363
		c-0.368-0.699-1.6-0.774-2.752-0.168C126.333,211.71,125.697,212.768,126.065,213.467z"/>
	<path style="fill:#474747;" d="M118.958,217.785c0.368,0.699,1.6,0.774,2.752,0.168c1.152-0.606,1.788-1.664,1.42-2.363
		c-0.368-0.699-1.6-0.774-2.752-0.168C119.226,216.028,118.59,217.086,118.958,217.785z"/>
	<path style="fill:#474747;" d="M111.582,221.923c0.368,0.699,1.6,0.774,2.752,0.168c1.152-0.606,1.788-1.664,1.42-2.363
		c-0.368-0.699-1.6-0.774-2.752-0.168C111.85,220.166,111.214,221.224,111.582,221.923z"/>
	<path style="fill:#474747;" d="M103.516,225.939c0.327,0.719,1.552,0.865,2.738,0.326c1.185-0.539,1.881-1.558,1.554-2.277
		c-0.327-0.719-1.552-0.865-2.738-0.326C103.885,224.201,103.189,225.22,103.516,225.939z"/>
	<path style="fill:#E2E4E6;" d="M122.47,204.521c-0.866,0.583-1.455,0.868-0.872,1.734l4.41,6.381
		c0.583,0.866,1.758,1.096,2.624,0.513l0,0c0.866-0.583,1.096-1.758,0.513-2.624l-4.41-6.381
		C124.151,203.278,123.336,203.939,122.47,204.521L122.47,204.521z"/>
	<path style="fill:#E2E4E6;" d="M130.295,199.773c-0.866,0.583-1.455,0.868-0.872,1.734l4.41,6.381
		c0.583,0.866,1.758,1.096,2.624,0.513l0,0c0.866-0.583,1.096-1.758,0.513-2.624l-4.41-6.381
		C131.977,198.53,131.161,199.191,130.295,199.773L130.295,199.773z"/>
	<path style="fill:#E2E4E6;" d="M115.521,208.619c-0.889,0.548-1.488,0.808-0.941,1.697l4.151,6.553
		c0.548,0.889,1.712,1.165,2.601,0.618l0,0c0.889-0.548,1.165-1.712,0.618-2.601l-4.151-6.553
		C117.252,207.444,116.41,208.071,115.521,208.619L115.521,208.619z"/>
	<path style="fill:#E2E4E6;" d="M108.577,212.962c-0.889,0.548-1.488,0.808-0.941,1.697l3.709,6.254
		c0.548,0.889,1.712,1.165,2.601,0.618l0,0c0.889-0.548,1.165-1.712,0.618-2.601l-3.709-6.254
		C110.307,211.787,109.466,212.415,108.577,212.962L108.577,212.962z"/>
	<path style="fill:#E2E4E6;" d="M100.928,217.623c-0.889,0.548-1.488,0.808-0.941,1.697l3.357,5.814
		c0.548,0.889,1.712,1.165,2.601,0.618l0,0c0.889-0.548,1.165-1.712,0.618-2.601l-3.357-5.814
		C102.658,216.448,101.816,217.075,100.928,217.623L100.928,217.623z"/>
</g>
<g>
	<path style="fill:#22323F;" d="M186.009,318.232c1.741,3.773,1.161,13.351,0.29,13.641c-9.578,2.032-17.34,2.34-23.126,2.802
		c-13.633,1.09-68.628,1.915-85.546,0.319c-13.408-1.265-27.448-6.314-22.224-19.955
		C69.625,319.684,186.009,318.232,186.009,318.232z"/>
	<path style="fill:#C9E28E;" d="M186.729,319.932c3.613-7.528,0-27.401-5.119-34.928c-5.119-7.528-10.238-0.903-12.345,4.517
		c-2.108,5.42-8.13,10.539-17.464,3.011c-9.334-7.528-14.152-14.152-22.583-9.635c-8.431,4.517-32.218,19.873-42.456,22.884
		c-10.238,3.011-31.315,1.204-31.616,9.334c-0.301,8.13,1.204,10.84,11.141,11.442s67.125-0.884,67.125-0.884L186.729,319.932z"/>
	<g>
		<g>
			<path style="fill:#FFFFFF;" d="M147.618,321.583l-26.66-23.246c1.653-1.09,3.236-2.306,4.794-3.686l27.227,23.739
				C151.202,319.461,149.383,320.485,147.618,321.583z"/>
		</g>
		<g>
			<path style="fill:#FFFFFF;" d="M156.63,316.025l-27.743-24.19c1.513-1.34,3.082-2.625,4.768-3.709l28.047,24.455
				C159.987,313.688,158.319,314.871,156.63,316.025z"/>
		</g>
		<g>
			<path style="fill:#FFFFFF;" d="M106.72,304.891l23.914,20.851c-2.038,0.051-5.087,0.125-8.781,0.21l-21.244-18.523
				C102.659,306.633,104.647,305.615,106.72,304.891z"/>
		</g>
		<g>
			<path style="fill:#FFFFFF;" d="M136.185,325.032l-25.035-21.828c0.975-0.397,1.946-0.801,2.911-1.205
				c1.069-0.448,2.093-0.926,3.085-1.434l24.553,21.408C139.841,322.928,138.094,324.216,136.185,325.032z"/>
		</g>
	</g>
	<path style="fill:#F2654E;" d="M150.866,315.527c7.289-5.302,14.531-11.84,18.933-19.822c1.695-3.074,3.191-6.47,5.57-9.094
		c2.041-2.251,4.11-2.671,6.109-1.791c0.044,0.063,0.088,0.118,0.132,0.183c5.119,7.528,8.732,27.401,5.119,34.928
		c0,0-26.508,4.689-53.417,5.743C133.312,325.675,145.394,319.507,150.866,315.527z"/>
	<path style="fill:#C9E28E;" d="M184.107,289.915c3.656,9.148,5.608,23.796,2.622,30.017c0,0-11.31,2-26.651,3.681
		C182.644,314.087,177.537,278.017,184.107,289.915z"/>
	<path style="fill:#F2654E;" d="M144.755,286.572c-9.641,7.039-42.194,26.854-48.135,24.164c-4.628-2.096-7.242-3.807-8.797-5.296
		c1.944-0.666,4.276-1.689,6.837-2.94c1.88,1.064,3.939,1.812,5.631,1.373c2.808-0.728,28.343-16.707,36.835-22.049
		C139.637,282.572,142.05,284.317,144.755,286.572z"/>
	<path style="fill:#474747;" d="M133.63,288.768c0.449,0.802,1.885,0.852,3.207,0.112c1.322-0.74,2.03-1.99,1.581-2.792
		c-0.449-0.802-1.885-0.852-3.207-0.112C133.889,286.715,133.181,287.966,133.63,288.768z"/>
	<path style="fill:#474747;" d="M126.064,293.169c0.368,0.699,1.6,0.774,2.752,0.168c1.152-0.606,1.788-1.664,1.42-2.363
		c-0.368-0.699-1.6-0.774-2.752-0.168C126.333,291.412,125.697,292.47,126.064,293.169z"/>
	<path style="fill:#474747;" d="M118.958,297.487c0.368,0.699,1.6,0.774,2.752,0.168c1.152-0.606,1.788-1.664,1.42-2.363
		c-0.368-0.699-1.6-0.774-2.752-0.168C119.226,295.73,118.59,296.788,118.958,297.487z"/>
	<path style="fill:#474747;" d="M111.582,301.625c0.368,0.699,1.6,0.774,2.752,0.168c1.152-0.606,1.788-1.664,1.42-2.363
		c-0.368-0.699-1.6-0.774-2.752-0.168C111.85,299.868,111.214,300.926,111.582,301.625z"/>
	<path style="fill:#474747;" d="M103.516,305.641c0.327,0.719,1.552,0.865,2.738,0.326c1.185-0.539,1.881-1.558,1.554-2.277
		c-0.327-0.719-1.552-0.865-2.738-0.326C103.885,303.903,103.189,304.922,103.516,305.641z"/>
	<path style="fill:#5D5D5D;" d="M122.47,284.223c-0.866,0.583-1.455,0.868-0.872,1.734l4.41,6.381
		c0.583,0.866,1.758,1.096,2.624,0.513l0,0c0.866-0.583,1.096-1.758,0.513-2.624l-4.41-6.381
		C124.151,282.98,123.336,283.641,122.47,284.223L122.47,284.223z"/>
	<path style="fill:#5D5D5D;" d="M130.295,279.475c-0.866,0.583-1.455,0.867-0.872,1.734l4.41,6.381
		c0.583,0.866,1.758,1.096,2.624,0.513l0,0c0.866-0.583,1.096-1.758,0.513-2.624l-4.41-6.381
		C131.977,278.232,131.161,278.892,130.295,279.475L130.295,279.475z"/>
	<path style="fill:#5D5D5D;" d="M115.521,288.321c-0.889,0.548-1.488,0.809-0.941,1.697l4.151,6.553
		c0.548,0.889,1.712,1.165,2.601,0.618l0,0c0.889-0.548,1.165-1.712,0.618-2.601l-4.151-6.553
		C117.251,287.146,116.41,287.773,115.521,288.321L115.521,288.321z"/>
	<path style="fill:#5D5D5D;" d="M108.577,292.664c-0.889,0.548-1.488,0.809-0.941,1.697l3.709,6.254
		c0.548,0.889,1.712,1.165,2.601,0.618l0,0c0.889-0.548,1.165-1.712,0.618-2.601l-3.709-6.254
		C110.307,291.489,109.466,292.117,108.577,292.664L108.577,292.664z"/>
	<path style="fill:#5D5D5D;" d="M100.928,297.324c-0.889,0.548-1.488,0.809-0.941,1.697l3.357,5.814
		c0.548,0.889,1.712,1.165,2.601,0.618l0,0c0.889-0.548,1.165-1.712,0.618-2.601l-3.357-5.814
		C102.658,296.15,101.816,296.777,100.928,297.324L100.928,297.324z"/>
</g>
<g>
	<path style="fill:#38B4D7;" d="M376.045,36.885c4.557,3.988,13.376,8.448,9.621,36.137c0.939,1.643-5.55,7.844-15.406,10.425
		c-9.856,2.581-27.053,2.222-30.103-2.002c-3.051-4.224-12.773-3.208-18.17,0.077c-5.397,3.285-22.322,5.118-37.341,2.772
		c-15.018-2.347-32.5-8.926-32.266-15.965c0.235-7.04,5.866-9.386,9.152-9.152c3.285,0.235,15.722,1.643,19.477,0.469
		c3.754-1.173,31.444-12.202,39.657-18.303c8.213-6.101,9.839-5.793,17.834,0.469C366.658,63.871,372.29,33.6,376.045,36.885z"/>
	<path style="fill:#57D7ED;" d="M360.055,64.956c-5.854,0.279-31.64-13.799-34.428-19.514c-5.341,3.264-5.341,3.264-5.341,3.264
		s20.666,15.269,7.716,19.978c-8.908,3.24-31.699-9.511-31.699-9.511l-4.71,2.176c0,0,22.744,13.92,20.514,17.125
		C328.137,74.712,360.055,64.956,360.055,64.956z"/>
	<path style="fill:#C9E28E;" d="M349.354,81.304c0,0-25.204,1.313-52.772,6.039c4.988-8.927,21.791-17.066,44.371-22.054
		c19.881-4.392,36.297-13.463,43.701-17.541c1.852,5.127,2.694,12.868,1.012,25.275c0.297,0.52,0.663,2.332,0.715,4.647
		L349.354,81.304z"/>
	<path style="fill:#FCE179;" d="M342.265,66.076c-21.624,4.777-37.943,12.445-43.667,20.927c-0.671,0.111-1.342,0.224-2.016,0.34
		c4.988-8.927,21.791-17.066,44.371-22.054c19.881-4.392,36.297-13.463,43.701-17.541c0.147,0.407,0.285,0.838,0.419,1.279
		C377.296,53.302,361.385,61.852,342.265,66.076z"/>
	<path style="fill:#425B71;" d="M386.009,74.121c-2.308,1.274-4.874,2.035-7.556,2.203c-4.039,0.253-7.788-0.852-11.748-1.386
		c-5.29-0.713-10.616-0.844-15.946-0.845c21.791-14.328,30.963-18.2,35.591-18.238c0.414,4.44,0.284,10.03-0.684,17.167
		C385.777,73.218,385.898,73.603,386.009,74.121z"/>
	<path style="fill:#425B71;" d="M252.38,68.329c0.194-5.833,4.093-8.442,7.293-9.032c3.978,7.321,18.959,12.35,26.028,14.429
		c7.978,2.347,6.336,5.397,4.224,10.794c0,0-18.192-3.621-32.311-6.583C254.298,74.438,252.293,70.934,252.38,68.329z"/>
	<path style="fill:#474747;" d="M287.109,81.939c11.307,1.589,23.231-0.469,43.412-6.101c4.5-1.256,28.159-3.051,39.033-1.296
		c11.996,1.935,16.13-1.665,16.13-1.665c-0.007,0.049-0.012,0.096-0.019,0.145c0.939,1.643,2.581,16.191-7.274,18.773
		c-9.856,2.581-40.596,1.877-43.646-2.347c-3.051-4.224-7.274-3.755-12.672-0.469c-2.595,1.579-8.448,2.723-15.492,3.226
		c-0.932-1.064-1.865-2.298-2.776-2.24c-0.963,0.061-1.647,1.418-2.473,2.49c-5.133,0.125-10.591-0.077-15.719-0.668
		c-0.651-1.251-1.265-2.66-2.16-2.818c-1.01-0.179-2.06,1.139-3.193,1.99c-14.351-3.135-28.106-15.889-27.881-22.629
		C252.398,67.778,258.715,77.95,287.109,81.939z"/>
	<path style="fill:#2D4253;" d="M378.632,85.219c-2.74,1.139-5.804,1.988-8.796,1.541c-2.72-0.407-5.178-1.838-7.945-2.08
		c-1.554-0.136-3.066-0.056-4.596,0.268c-1.554,0.33-3.153,0.799-4.756,0.756c-2.967-0.079-5.835-1.369-8.786-1.7
		c-4.267-0.479-8.085,1.018-11.669,3.064c-0.716-0.364-1.473-0.579-2.277-0.641c3.772-2.536,7.436-5.419,11.739-6.767
		c1.576-0.494,3.205-0.633,4.725,0.163c1.372,0.719,2.447,1.801,3.698,2.69c2.008,1.427,4.621,1.939,6.797,0.49
		c2.523-1.68,4.295-4.285,7.724-2.58c2.98,1.482,5.11,3.721,8.61,3.928c3.222,0.191,7.472-0.73,10.014-2.783
		c1.247-1.007,2.29-2.191,3.273-3.429c0.003,0.836-0.038,1.729-0.137,2.643C383.87,82.555,381.332,84.096,378.632,85.219z"/>
	<path style="fill:#C9E28E;" d="M288.245,56.905c0.651,0.191,1.315,0.313,1.989,0.313c2.044-0.002,3.993-0.808,5.869-1.545
		c4.615-1.815,9.108-3.949,13.441-6.36c4.354-2.423,8.655-5.012,12.773-7.82c1.923-1.311,3.87-2.648,5.99-3.625
		c0.705-0.325,1.412-0.634,2.147-0.837c2.181,0.384,4.48,1.989,8.046,4.782c1.963,1.538,3.813,2.813,5.564,3.871
		c0.143,5.161-1.606,8.336-7.911,5.75c-9.152-3.755-11.968-2.347-15.722,0c-3.755,2.347-29.332,18.069-34.26,11.968
		c-1.319-1.633-2.413-3.109-3.318-4.404C284.19,58.503,286.053,57.783,288.245,56.905z"/>
	<path style="fill:#FCE179;" d="M285.908,61.563c4.928,6.101,30.506-9.621,34.26-11.968c3.754-2.347,6.57-3.755,15.722,0
		c5.597,2.296,7.602,0.05,7.882-4.095c0.096,0.059,0.195,0.125,0.291,0.183c0.143,5.161-1.606,8.336-7.911,5.75
		c-9.152-3.755-11.968-2.347-15.722,0c-3.755,2.347-29.332,18.069-34.26,11.968c-1.319-1.633-2.413-3.109-3.318-4.404
		c0.258-0.095,0.54-0.201,0.835-0.313C284.348,59.581,285.079,60.537,285.908,61.563z"/>
	<path style="fill:#474747;" d="M370.87,45.362c-2.528,2.836-7.534,11.917-21.823,5.336c-12.106-5.575-16.566-15.611-25.825-11.181
		c6.104-4.124,8.189-3.257,15.277,2.295c28.159,22.058,33.791-8.213,37.545-4.928c0.505,0.442,1.062,0.889,1.648,1.373
		C375.569,37.397,372.881,43.106,370.87,45.362z"/>
	<g>
		<path style="fill:#474747;" d="M326.168,43.68c0.263,0.508,1.119,0.586,1.913,0.175c0.794-0.411,1.224-1.156,0.961-1.664
			c-0.263-0.508-1.119-0.586-1.913-0.175C326.335,42.428,325.905,43.173,326.168,43.68z"/>
		<path style="fill:#474747;" d="M313.015,50.031c0.263,0.508,1.119,0.586,1.913,0.175c0.794-0.411,1.224-1.156,0.961-1.663
			c-0.263-0.508-1.119-0.586-1.913-0.175C313.182,48.779,312.752,49.523,313.015,50.031z"/>
		<path style="fill:#474747;" d="M304.152,53.406c0.263,0.508,1.119,0.586,1.913,0.175c0.794-0.411,1.224-1.156,0.961-1.664
			c-0.263-0.508-1.119-0.586-1.913-0.175C304.32,52.153,303.889,52.898,304.152,53.406z"/>
		<path style="fill:#474747;" d="M295.306,56.534c0.137,0.427,0.788,0.6,1.455,0.387c0.667-0.214,1.097-0.733,0.961-1.16
			c-0.136-0.427-0.788-0.6-1.455-0.387C295.6,55.587,295.17,56.107,295.306,56.534z"/>
		<path style="fill:#474747;" d="M288.967,58.246c0.137,0.427,0.788,0.6,1.455,0.387c0.667-0.214,1.097-0.733,0.961-1.16
			c-0.136-0.427-0.788-0.6-1.455-0.387C289.26,57.299,288.83,57.819,288.967,58.246z"/>
	</g>
	<path style="fill:#474747;" d="M316.046,42.867c0.003,0.545,0.561,0.984,1.246,0.98l9.749-0.053
		c0.685-0.004,1.238-0.449,1.235-0.994l0,0c-0.003-0.545-0.561-0.984-1.246-0.98l-9.749,0.053
		C316.596,41.877,316.043,42.322,316.046,42.867L316.046,42.867z"/>
	<path style="fill:#474747;" d="M322.701,38.875c-0.411-0.328-1.092-0.16-1.519,0.375l-7.556,9.019
		c-0.427,0.536-0.44,1.236-0.029,1.564l0,0c0.411,0.328,1.092,0.16,1.519-0.375l7.556-9.019
		C323.1,39.904,323.112,39.204,322.701,38.875L322.701,38.875z"/>
	<path style="fill:#474747;" d="M304.922,48.346c-0.083,0.526,0.172,0.951,0.849,1.058l7.994,0.555
		c0.677,0.107,1.293-0.232,1.376-0.759l0,0c0.083-0.526-0.398-1.04-1.075-1.147l-7.675-0.415
		C305.715,47.532,305.005,47.82,304.922,48.346L304.922,48.346z"/>
	<path style="fill:#474747;" d="M311.273,45.604c-0.403-0.366-1.103-0.252-1.564,0.256l-4.953,5.736
		c-0.461,0.507-0.508,1.215-0.104,1.581l0,0c0.403,0.366,1.103,0.252,1.564-0.256l4.953-5.736
		C311.63,46.678,311.676,45.971,311.273,45.604L311.273,45.604z"/>
	<path style="fill:#474747;" d="M295.965,52.458c-0.013,0.49,0.374,0.898,0.864,0.91l8.375,0.041c0.49,0.013,0.897-0.374,0.91-0.864
		l0,0c0.013-0.49-0.374-0.898-0.864-0.91l-8.375-0.041C296.385,51.581,295.978,51.968,295.965,52.458L295.965,52.458z"/>
	<path style="fill:#474747;" d="M302.911,49.714c-0.409-0.276-1.002-0.227-1.334,0.103l-5.86,5.316
		c-0.332,0.33-0.331,0.869,0.01,1.213l0,0c0.35,0.352,0.922,0.364,1.269,0.018l6.052-5.506
		C303.396,50.512,303.33,49.997,302.911,49.714L302.911,49.714z"/>
	<path style="fill:#474747;" d="M290.127,54.775c-0.197,0.376-0.001,0.78,0.456,0.895l5.226,0.961
		c0.626,0.154,1.252-0.12,1.372-0.601l0,0c0.116-0.463-0.29-0.922-0.884-1.037l-5.039-0.713
		C290.817,54.191,290.318,54.41,290.127,54.775L290.127,54.775z"/>
	<path style="fill:#474747;" d="M295.215,53.072c-0.398-0.164-0.939-0.115-1.232,0.106l-4.491,3.694
		c-0.421,0.322-0.535,0.872-0.226,1.24l0,0c0.331,0.394,0.995,0.415,1.451,0.033l4.727-4.301
		C295.749,53.591,295.634,53.245,295.215,53.072L295.215,53.072z"/>
	<path style="fill:#2D4253;" d="M252.629,68.507c1.895,6.999,14.511,17.905,27.632,20.772c1.133-0.851,2.183-2.169,3.193-1.99
		c0.895,0.159,1.509,1.567,2.16,2.818c5.128,0.591,10.586,0.793,15.719,0.668c0.826-1.072,1.51-2.429,2.473-2.49
		c0.91-0.058,1.844,1.176,2.776,2.24c7.044-0.503,12.897-1.647,15.492-3.226c5.397-3.285,9.621-3.755,12.672,0.469
		c3.051,4.224,33.791,4.928,43.646,2.347c6.132-1.606,7.812-7.843,7.981-12.724c0.169,5.005-1.116,12.605-7.981,14.403
		c-9.856,2.581-40.596,1.877-43.646-2.347c-3.051-4.224-7.274-3.755-12.672-0.469c-2.595,1.579-8.448,2.723-15.492,3.226
		c-0.932-1.064-1.865-2.298-2.776-2.24c-0.963,0.061-1.647,1.418-2.473,2.49c-5.133,0.125-10.591-0.077-15.719-0.668
		c-0.651-1.251-1.265-2.66-2.16-2.818c-1.01-0.179-2.06,1.139-3.193,1.99c-14.351-3.135-28.106-15.889-27.881-22.629
		C252.382,68.269,252.458,68.336,252.629,68.507z"/>
</g>
<g>
	<g>
		<path style="fill:#F98268;" d="M334.596,119.769c0.903-2.71,0.602-6.925-2.409-6.624c-3.011,0.301-25.895,13.249-39.746,26.497
			C278.59,152.891,334.596,119.769,334.596,119.769z"/>
		<path style="fill:#D4555D;" d="M383.375,155.299c3.613-7.528,0-27.401-5.119-34.928c-5.119-7.528-10.238-0.903-12.345,4.517
			c-2.108,5.42-8.13,10.539-17.464,3.011c-9.334-7.528-14.152-14.152-22.583-9.635c-8.431,4.517-32.218,19.873-42.456,22.884
			c-10.238,3.011-31.315,1.204-31.616,9.334c-0.301,8.13,1.204,10.84,11.141,11.442c9.936,0.602,68.652-0.903,68.652-0.903
			L383.375,155.299z"/>
		<path style="fill:#2D4253;" d="M335.085,159.646c3.056-3.359,6.426-6.57,10.357-8.892c2.618-1.547,5.703-3.102,8.804-3.244
			c2.5-0.114,5.231,0.264,7.661-0.465c2.261-0.678,6.027-2.612,4.366-5.634c-2.366-4.305-7.05-2.546-10.954-3.616
			c-7.538-2.066-13.113-9.51-15.525-17.154c2.555,1.993,5.314,4.566,8.652,7.258c9.334,7.528,15.357,2.409,17.464-3.011
			c2.108-5.42,7.227-12.044,12.345-4.517c5.119,7.528,8.732,27.401,5.119,34.928l-49.248,5.44
			C334.447,160.376,334.759,160.004,335.085,159.646z"/>
		<path style="fill:#F98268;" d="M376.461,133.812c-3.994-1.825-7.746,0.182-11.861,0.224c-2.829,0.029-5.86-0.784-8.247-2.396
			c4.873,0.484,8.123-3.062,9.558-6.751c2.108-5.42,7.227-12.044,12.345-4.517c3.095,4.552,5.637,13.616,6.366,21.736
			C382.63,138.771,379.87,135.37,376.461,133.812z"/>
		<path style="fill:#2D4253;" d="M251.792,150.482c0.269-7.252,17.065-6.6,27.956-8.511c1.953,3.064,4.469,5.36,8.846,5.423
			c7.882,0.115,15.98-2.376,23.707,0.369c7.069,2.512,12.004,7.576,16.28,13.333c-12.095,0.296-57.065,1.349-65.648,0.828
			C252.996,161.322,251.491,158.612,251.792,150.482z"/>
		<path style="fill:#F98268;" d="M251.83,150.142c1.169,0.648,2.371,1.225,3.601,1.68c8.106,3.002,17.389,3.398,25.942,2.895
			c10.117-0.594,21.03-2.709,31.01-0.039c4.797,1.283,9.418,3.535,13.53,6.482c-14.962,0.358-54.939,1.251-62.98,0.764
			c-9.937-0.602-11.442-3.312-11.141-11.442C251.796,150.365,251.817,150.255,251.83,150.142z"/>
		<g>
			<path style="fill:#F2654F;" d="M366.705,126.997c-2.108,5.42-8.924,10.437-18.258,2.909c-9.334-7.528-14.152-14.152-22.583-9.635
				c-3.926,2.103-11.204,5.599-18.894,9.039c7.684-4.472,14.961-8.939,18.894-11.046c8.431-4.517,13.249,2.108,22.583,9.635
				c9.334,7.528,15.356,2.409,17.464-3.011c2.058-5.293,6.989-11.727,11.986-5.014C373.266,115.759,368.592,122.145,366.705,126.997
				z"/>
		</g>
		<path style="fill:#E2E2E2;" d="M251.82,153.898c0,0,0.213,1.954,0.227,2.042c2.108,2.71,27.748,4.879,37.082,5.18
			c9.334,0.301,39.445-4.818,49.08-7.227c9.635-2.409,37.638-3.011,46.671-3.011c0.696,0,1.294,0.834,1.88,2.239
			c2.853,13.88-1.26,17.025-19.649,16.141h-88.331c-18.684,0.126-23.332-3.645-24.58-5.432
			C249.886,157.654,251.82,153.898,251.82,153.898z"/>
	</g>
	<path style="fill:#474747;" d="M254.201,162.634c1.282,1.763,5.896,5.558,24.58,5.432h88.331
		c14.604,0.702,20.198-1.144,20.455-8.884c0.277,8.748-5.126,10.818-20.455,10.081h-88.331c-18.684,0.126-23.298-3.669-24.58-5.432
		c-2.649-3.642-3.436-7.854-2.381-9.932C251.045,156.816,251.995,159.6,254.201,162.634z"/>
	<path style="fill:#D4555D;" d="M349.232,159.551c0,1.388,1.125,2.514,2.514,2.514h24.898c1.388,0,2.514-1.125,2.514-2.514l0,0
		c0-1.388-1.125-2.514-2.514-2.514h-24.898C350.357,157.038,349.232,158.163,349.232,159.551L349.232,159.551z"/>
	<g>
		<path style="fill:#474747;" d="M323.773,122.232c-0.547,0.337-0.785,0.942-0.533,1.352l0.152,0.169
			c0.253,0.41,0.901,0.47,1.447,0.133l2.475-1.524c0.547-0.337,0.785-0.942,0.533-1.352l-0.152-0.169
			c-0.253-0.41-0.901-0.47-1.447-0.133L323.773,122.232z"/>
		<path style="fill:#474747;" d="M318.309,125.399c-0.547,0.337-0.785,0.942-0.533,1.352l0.152,0.169
			c0.253,0.41,0.901,0.47,1.447,0.133l2.475-1.524c0.547-0.337,0.785-0.942,0.533-1.352l-0.152-0.169
			c-0.253-0.41-0.901-0.47-1.447-0.133L318.309,125.399z"/>
		<path style="fill:#474747;" d="M312.768,128.631c-0.547,0.337-0.785,0.942-0.533,1.352l0.152,0.169
			c0.253,0.41,0.901,0.47,1.447,0.133l2.475-1.524c0.547-0.337,0.785-0.942,0.533-1.352l-0.152-0.169
			c-0.253-0.41-0.901-0.47-1.448-0.133L312.768,128.631z"/>
		<path style="fill:#474747;" d="M307.32,131.955c-0.547,0.337-0.785,0.942-0.533,1.352l0.152,0.169
			c0.252,0.41,0.901,0.47,1.447,0.133l2.475-1.524c0.547-0.337,0.785-0.942,0.533-1.353l-0.152-0.169
			c-0.253-0.41-0.901-0.47-1.447-0.133L307.32,131.955z"/>
		<path style="fill:#474747;" d="M302.057,135.002c-0.547,0.337-0.785,0.942-0.533,1.352l0.152,0.169
			c0.253,0.41,0.901,0.47,1.447,0.133l2.475-1.524c0.547-0.337,0.785-0.942,0.533-1.352l-0.152-0.169
			c-0.253-0.41-0.901-0.47-1.447-0.133L302.057,135.002z"/>
		<path style="fill:#474747;" d="M296.517,138.326c-0.547,0.337-0.785,0.942-0.533,1.352l0.152,0.169
			c0.253,0.41,0.901,0.47,1.447,0.133l2.475-1.524c0.547-0.337,0.785-0.942,0.533-1.353l-0.152-0.169
			c-0.253-0.41-0.901-0.47-1.448-0.133L296.517,138.326z"/>
		<path style="fill:#F9F9F9;" d="M321.085,117.365c-0.45,0.277-0.647,0.776-0.439,1.114l3.005,4.743
			c0.208,0.338,0.742,0.387,1.192,0.109l2.038-1.255c0.45-0.277,0.647-0.776,0.439-1.114l-3.005-4.743
			c-0.208-0.338-0.742-0.387-1.192-0.11L321.085,117.365z"/>
		<path style="fill:#F9F9F9;" d="M315.536,120.678c-0.45,0.277-0.647,0.776-0.439,1.114l3.005,4.744
			c0.208,0.338,0.742,0.387,1.192,0.109l2.038-1.255c0.45-0.277,0.647-0.776,0.439-1.114l-3.005-4.743
			c-0.208-0.338-0.742-0.387-1.192-0.109L315.536,120.678z"/>
		<path style="fill:#F9F9F9;" d="M310.227,123.838c-0.45,0.277-0.647,0.776-0.439,1.114l3.005,4.744
			c0.208,0.338,0.742,0.387,1.192,0.109l2.038-1.255c0.45-0.277,0.647-0.776,0.439-1.114l-3.005-4.744
			c-0.208-0.338-0.742-0.387-1.192-0.109L310.227,123.838z"/>
		<path style="fill:#F9F9F9;" d="M304.678,127.151c-0.45,0.277-0.647,0.776-0.439,1.114l3.005,4.743
			c0.208,0.338,0.742,0.387,1.192,0.109l2.038-1.255c0.45-0.277,0.647-0.776,0.439-1.114l-3.005-4.743
			c-0.208-0.338-0.742-0.387-1.192-0.109L304.678,127.151z"/>
		<path style="fill:#F9F9F9;" d="M299.368,130.311c-0.45,0.277-0.647,0.776-0.439,1.114l3.005,4.743
			c0.208,0.338,0.742,0.387,1.192,0.109l2.038-1.255c0.45-0.277,0.647-0.776,0.439-1.114l-3.005-4.743
			c-0.208-0.338-0.742-0.387-1.192-0.109L299.368,130.311z"/>
		<path style="fill:#F9F9F9;" d="M293.819,133.624c-0.45,0.277-0.647,0.776-0.439,1.114l3.005,4.743
			c0.208,0.338,0.742,0.387,1.192,0.109l2.038-1.255c0.45-0.277,0.647-0.776,0.439-1.114l-3.005-4.743
			c-0.208-0.338-0.742-0.387-1.192-0.109L293.819,133.624z"/>
	</g>
</g>
<g>
	<path style="fill:#2D4253;" d="M378.849,192.177c2.394,7.182,6.748,25.304,7.029,39.081c0.281,13.777,1.595,21.982-11.338,22.825
		c-12.933,0.844-69.366,2.897-79.488,1.772c-10.122-1.125-42.443-6.884-42.162-15.6c0.281-8.716,4.78-13.777,10.684-14.62
		c5.904-0.843,19.681-5.342,26.429-8.154s23.617-8.716,25.023-11.246s14.901-27.554,19.962-30.084
		c2.328-1.164,11.372,4.585,20.806,8.154C366.871,188.495,378.393,190.81,378.849,192.177z"/>
	<path style="fill:#435B71;" d="M263.574,225.635c4.162-0.595,12.231-3.005,18.997-5.361c0.973,0.553,2.101,0.764,3.512,0.347
		c2.909-0.859,6.065-3.011,9.206-2.197c2.059,0.533,3.534,2.097,5.654,2.361c2.585,0.322,5.712-1.337,7.969-2.396
		c2.656-1.247,5.182-2.713,7.665-4.276c2.788-1.755,5.808-4.202,8.941-5.261c3.914-1.323,9.736,0.071,13.076,1.945
		c0.476,0.267,0.967-0.405,0.652-0.81c-1.984-2.555-6.549-5.081-6.515-8.465c0.029-2.835,1.122-5.463,2.478-7.91
		c2.703-4.876,5.267-10.166,8.806-14.551c3.482,1.648,7.591,3.661,11.78,5.246c11.077,4.19,22.6,6.506,23.055,7.872
		c2.394,7.182,6.748,25.304,7.029,39.081c0.281,13.777,1.687,20.806-11.246,21.649c-12.933,0.844-69.165,3.374-79.287,2.249
		c-10.122-1.125-42.736-6.186-42.455-14.901C253.171,231.539,257.669,226.478,263.574,225.635z"/>
	<path style="fill:#F9F9F9;" d="M286.083,220.621c0.882-0.261,1.787-0.64,2.707-1.02c0.418,0.596,0.824,1.194,1.192,1.807
		c0.837,1.395,2.195,3.517,1.718,5.25c-0.71,2.58-4.627,2.822-6.78,2.922c-4.179,0.195-8.255-0.505-12.409-0.777
		c-2.351-0.154-4.966-0.167-7.164-1.136c-1.033-0.456-1.842-1.11-2.487-1.896c0.237-0.049,0.472-0.101,0.713-0.136
		c4.162-0.595,12.231-3.005,18.997-5.361C283.544,220.826,284.672,221.037,286.083,220.621z"/>
	<path style="fill:#38B4D7;" d="M381.387,207.109c-2.688,2.312-7.211,3.896-10.391,5.458c-6.274,3.082-13.004,3.939-19.998,2.785
		c-6.035-0.996-10.043-2.628-15.027-5.905c-1.71-2.324-3.269-4.987-3.239-7.927c0.029-2.835,1.122-5.463,2.478-7.91
		c2.703-4.876,5.267-10.166,8.806-14.551c3.482,1.648,7.591,3.661,11.78,5.246c11.077,4.19,22.6,6.506,23.055,7.872
		c1.019,3.057,2.392,8.1,3.656,13.942C382.136,206.452,381.765,206.783,381.387,207.109z"/>
	<path style="fill:#57D7ED;" d="M349.252,213.181c7.629,1.439,15.18,0.07,22.023-2.757c3.469-1.433,6.825-3.182,9.757-5.385
		c0.356-0.268,0.704-0.541,1.052-0.814c0.141,0.622,0.282,1.252,0.421,1.895c-0.369,0.333-0.74,0.664-1.118,0.99
		c-2.688,2.312-5.765,4.187-8.945,5.749c-6.274,3.082-13.12,4.085-20.191,3.579c-8.088-0.579-14.749-5.402-19.733-8.68
		c-0.477-0.648,2.515,0.364,2.093-0.336C339.129,210.044,343.911,212.173,349.252,213.181z"/>
	<path style="fill:#38B4D7;" d="M261.664,226.08c0.713,1.014,1.626,1.857,2.84,2.392c2.778,1.226,5.799,1.192,8.768,1.471
		c4.212,0.396,8.482,1.08,12.719,0.627c3.801-0.406,8.196-2.022,6.442-6.656c-0.643-1.698-1.619-3.223-2.667-4.707
		c1.81-0.71,3.668-1.264,5.521-0.784c1.852,0.48,3.235,1.785,5.036,2.236c7.768,9.99,14.967,20.27,21.365,31.324
		c0.608,1.051,1.235,2.087,1.87,3.119c-12.936,0.37-24.202,0.5-28.215,0.054c-10.122-1.125-42.736-6.186-42.455-14.901
		C253.139,232.508,256.725,227.657,261.664,226.08z"/>
	<g>
		<path style="fill:#57D7ED;" d="M317.892,248.945c-5.95-10.282-12.601-19.89-19.751-29.222c0.698,0.381,1.401,0.739,2.184,0.935
			c7.768,9.99,14.967,20.27,21.365,31.324c0.608,1.051,1.235,2.087,1.87,3.119c-0.839,0.024-1.669,0.047-2.492,0.069
			C319.565,252.193,318.168,249.423,317.892,248.945z"/>
	</g>
	<path style="fill:#38B4D7;" d="M330.277,246.551c1.57-5.679,4.417-10.042,9.829-12.695c4.395-2.155,9.132-3.348,13.889-4.406
		c7.345-1.633,15.429-3.02,22.09-6.681c3.781-2.078,6.415-4.928,8.014-8.401c0.964,5.695,1.671,11.611,1.779,16.89
		c0.281,13.777,1.687,20.806-11.246,21.649c-7.181,0.468-27.711,1.457-46.285,2.051
		C328.917,252.133,329.513,249.313,330.277,246.551z"/>
	<path style="fill:#57D7ED;" d="M376.646,224.63c-6.793,3.811-15.038,5.254-22.529,6.954c-4.852,1.101-9.683,2.343-14.165,4.586
		c-5.519,2.761-8.422,7.302-10.023,13.213c-0.497,1.835-0.921,3.696-1.316,5.566c-0.088,0.003-0.177,0.006-0.265,0.009
		c0.57-2.825,1.166-5.645,1.93-8.407c1.57-5.679,4.417-10.042,9.829-12.695c4.395-2.155,9.132-3.348,13.889-4.406
		c7.345-1.633,15.429-3.02,22.09-6.681c3.781-2.078,6.415-4.928,8.014-8.401c0.126,0.742,0.246,1.488,0.362,2.236
		C382.808,219.892,380.241,222.614,376.646,224.63z"/>
	<path style="fill:#E2E2E2;" d="M254.64,232.445c6.967,6.499,32.96,10,41.901,10.837c10.407,0.975,68.223-2.386,81.521-3.421
		c3.675-0.286,6.22-1.031,7.979-2.246c0.186,9.597-0.643,14.589-11.409,15.291c-12.933,0.844-69.165,3.374-79.287,2.249
		c-10.122-1.125-42.736-6.186-42.455-14.901C252.988,237.187,253.619,234.583,254.64,232.445z"/>
	<path style="fill:#2D4253;" d="M297.179,252.332c-0.179-0.849-0.359-1.698-0.541-2.546c0.005,0,0.01,0.001,0.015,0.001
		c10.382,0.776,68.059-3.695,81.325-4.984c3.667-0.356,6.206-1.15,7.96-2.399c0.02,1.04-0.376,3.174-0.376,3.174
		c-1.717,1.018-3.692,1.462-6.945,1.778c-13.266,1.29-70.943,5.76-81.325,4.984C297.256,252.338,297.215,252.335,297.179,252.332z"
		/>
	<path style="fill:#2D4253;" d="M301.332,247.113c4.109,1.467,5.621,4.907,6.898,8.594c-5.958,0.057-10.6-0.01-12.885-0.264
		c-10.122-1.125-42.736-6.186-42.455-14.901c0.077-2.401,0.489-4.508,1.15-6.34C265.469,244.341,298.614,246.143,301.332,247.113z"
		/>
	<path style="fill:#F9F9F9;" d="M325.881,215.316c4.518,4.28,11.413,9.035,14.504,11.413c3.091,2.378-17.595,15.217-21.399,10.462
		c-3.804-4.755-8.797-14.504-8.797-14.504L325.881,215.316z"/>
	<path style="fill:#F9F9F9;" d="M353.614,187.745c6.264,1.566,19.057,4.991,20.192,8.394c1.134,3.403-2.042,12.251-10.209,11.797
		c-8.168-0.454-21.553-6.126-19.738-9.982C345.674,194.098,349.077,186.611,353.614,187.745z"/>
	<path style="fill:#474747;" d="M340.25,187.633c-0.666,1.766-0.304,3.538,0.808,3.957c1.112,0.419,2.553-0.673,3.219-2.439
		s0.304-3.538-0.808-3.957C342.356,184.774,340.915,185.867,340.25,187.633z"/>
	<path style="fill:#474747;" d="M336.199,196.999c-0.666,1.766-0.304,3.538,0.808,3.957c1.112,0.419,2.553-0.673,3.219-2.439
		c0.666-1.766,0.304-3.538-0.808-3.957C338.306,194.141,336.865,195.233,336.199,196.999z"/>
	<path style="fill:#474747;" d="M329.472,209.58c-0.921,1.154-1.078,2.559-0.351,3.139c0.727,0.579,2.062,0.114,2.982-1.04
		c0.92-1.154,1.078-2.559,0.351-3.138C331.728,207.961,330.392,208.426,329.472,209.58z"/>
	<path style="fill:#474747;" d="M320.736,212.701c-1.223,0.828-1.791,2.123-1.27,2.893c0.521,0.77,1.934,0.723,3.157-0.105
		c1.222-0.828,1.791-2.123,1.27-2.893C323.371,211.826,321.958,211.873,320.736,212.701z"/>
	<path style="fill:#474747;" d="M312.157,216.727c-1.337,0.623-2.102,1.811-1.709,2.653c0.393,0.842,1.795,1.019,3.132,0.396
		c1.337-0.623,2.102-1.811,1.709-2.653C314.896,216.281,313.494,216.104,312.157,216.727z"/>
	<path style="fill:#474747;" d="M305.325,220.094c-1.337,0.623-2.102,1.811-1.709,2.654c0.393,0.842,1.795,1.019,3.132,0.396
		c1.337-0.623,2.102-1.811,1.709-2.653C308.064,219.648,306.662,219.47,305.325,220.094z"/>
	<g>
		<path style="fill:#2D4253;" d="M375.052,193.696c-0.456-1.367-11.978-3.682-23.055-7.872c-7.705-2.914-15.146-7.28-18.884-8.149
			c0.702-0.721,1.339-1.255,1.876-1.524c2.328-1.164,11.372,4.585,20.806,8.154c11.077,4.19,22.6,6.506,23.055,7.872
			c0.731,2.193,1.645,5.41,2.57,9.207C378.301,198.487,375.792,195.917,375.052,193.696z"/>
	</g>
	<path style="fill:#F9F9F9;" d="M327.416,183.307c-0.205,0.488-0.074,1.007,0.292,1.161l13.667,6.078
		c0.366,0.154,0.828-0.117,1.033-0.605l0.926-2.208c0.205-0.488,0.074-1.007-0.292-1.161l-13.667-6.078
		c-0.366-0.154-0.828,0.117-1.033,0.605L327.416,183.307z"/>
	<path style="fill:#F9F9F9;" d="M322.292,190.638c-0.246,0.468-0.16,0.997,0.191,1.182l14.894,8.336
		c0.351,0.184,0.835-0.046,1.081-0.514l1.112-2.12c0.246-0.468,0.16-0.997-0.191-1.182l-14.894-8.336
		c-0.351-0.184-0.835,0.046-1.081,0.514L322.292,190.638z"/>
	<path style="fill:#F9F9F9;" d="M316.584,199.847c-0.335,0.409-0.359,0.944-0.052,1.196l12.9,11.176
		c0.307,0.252,0.827,0.124,1.162-0.285l1.518-1.851c0.335-0.409,0.359-0.944,0.052-1.196l-12.9-11.176
		c-0.307-0.252-0.827-0.124-1.163,0.285L316.584,199.847z"/>
	<path style="fill:#F9F9F9;" d="M312.47,206.205c-0.382,0.365-0.47,0.894-0.196,1.181l7.632,8.166
		c0.274,0.287,0.806,0.223,1.188-0.143l1.73-1.654c0.382-0.365,0.47-0.894,0.196-1.181l-7.632-8.166
		c-0.274-0.287-0.806-0.223-1.188,0.143L312.47,206.205z"/>
	<path style="fill:#F9F9F9;" d="M307.034,209.269c-0.465,0.251-0.69,0.738-0.502,1.087l4.591,8.865
		c0.188,0.349,0.718,0.429,1.184,0.177l2.107-1.137c0.465-0.251,0.69-0.738,0.502-1.087l-4.591-8.865
		c-0.188-0.349-0.718-0.429-1.184-0.177L307.034,209.269z"/>
	<path style="fill:#F9F9F9;" d="M300.809,212.235c-0.486,0.21-0.752,0.674-0.595,1.039l3.802,9.23
		c0.157,0.364,0.678,0.49,1.164,0.28l2.198-0.948c0.486-0.209,0.752-0.674,0.594-1.039l-3.802-9.23
		c-0.157-0.364-0.678-0.49-1.164-0.28L300.809,212.235z"/>
	<path style="fill:#474747;" d="M297.315,222.87c-1.435,0.341-2.424,1.35-2.209,2.254c0.215,0.904,1.553,1.361,2.988,1.02
		c1.435-0.341,2.424-1.35,2.209-2.254S298.75,222.53,297.315,222.87z"/>
	<path style="fill:#F9F9F9;" d="M293.641,214.63c-0.503,0.164-0.81,0.603-0.687,0.98l2.94,9.539c0.123,0.377,0.63,0.55,1.133,0.386
		l2.275-0.743c0.503-0.164,0.81-0.603,0.687-0.98l-2.94-9.539c-0.123-0.377-0.63-0.55-1.133-0.385L293.641,214.63z"/>
</g>
<g>
	<path style="fill:#00C5AD;" d="M378.477,286.226c2.225,1.146,15.159,20.865,4.815,38.877c-4.637,2.675-15.872,1.962-35.845,2.318
		c-19.974,0.357-44.227,6.42-52.253,6.598c-8.025,0.178-36.38-2.497-42.266-18.012c-1.248-6.42-0.178-10.522,4.815-13.018
		s15.515-4.28,20.509-6.063c4.993-1.783,36.737-12.483,40.126-14.267c3.388-1.783,9.452-5.35,16.407,0
		c2.899,2.23,14.7,13.955,22.292,13.732C375.267,295.856,375.044,284.458,378.477,286.226z"/>
	<path style="fill:#92C266;" d="M320.828,285.754c2.701,4.183,6.378,9.119,9.296,13.155c5.801,8.025,10.481,17.129,16.137,25.257
		c1.035,1.487-2.036,3.547-0.998,5.033c-8.07,0.425-16.528,1.517-24.411,2.74c-0.75-1.151-1.498-2.303-2.242-3.456
		c-4.367-6.773-8.77-13.522-13.147-20.288c-2.908-4.494-5.716-9.067-8.118-13.843C303.793,292.385,314.446,287.924,320.828,285.754z
		"/>
	<path style="fill:#030507;" d="M328.268,284.266c9.131,14.706,19.122,28.752,29.227,42.711c-3.07,0.022-6.413,0.054-10.049,0.124
		c-1.062,0.02-2.136,0.059-3.219,0.113c-1.01-1.558-2.019-3.116-3.025-4.676c-4.996-7.746-9.972-15.507-15.09-23.161
		c-2.528-3.781-5.021-7.596-7.372-11.506C321.925,286.697,325.101,285.493,328.268,284.266z"/>
	<path style="fill:#030507;" d="M295.857,295.724c1.466-0.465,2.929-0.94,4.392-1.419c2.152,4.64,4.677,9.084,7.3,13.434
		c4.003,6.639,7.991,13.287,11.979,19.936c0.469,0.781,0.939,1.562,1.41,2.342c-2.92,0.495-5.744,1.006-8.403,1.495
		c-1.324-2-2.64-4.006-3.939-6.025c-5.833-9.067-11.854-18.506-16.478-28.554C293.444,296.511,294.706,296.089,295.857,295.724z"/>
	<path style="fill:#FCE179;" d="M299.143,296.553c-5.598,1.681-11.46,3.873-17.342,4.292c-3.447,0.245-6.457-0.46-8.605-2.457
		c1.942-0.497,3.704-0.98,5.056-1.462c4.993-1.783,36.737-12.483,40.126-14.267c3.388-1.783,9.452-5.35,16.407,0
		c0.371,0.285,0.888,0.727,1.522,1.277C324.054,288.528,311.675,292.79,299.143,296.553z"/>
	<path style="fill:#92C266;" d="M376.1,302.091c-2.372-2.855-4.897-5.576-7.493-8.227c6.825-3.413,7.41-8.905,9.87-7.638
		c1.953,1.006,12.146,16.312,7.627,32.217C383.492,312.576,380.237,307.072,376.1,302.091z"/>
	<path style="fill:#92C266;" d="M257.743,302.989c3.431-1.716,10.649-3.395,15.714-4.668c0.493,0.517,1.033,0.953,1.608,1.322
		c-2.133,0.889-5.34,2.328-7.008,3.893c-2.765,2.594-2.309,5.663-0.714,8.8c2.454,4.829,6.907,8.249,9.224,13.179
		c1.028,2.188,1.821,4.468,2.44,6.803c-10.583-2.181-22.495-6.862-26.079-16.31C251.68,309.588,252.75,305.486,257.743,302.989z"/>
	<path style="fill:#030507;" d="M383.292,325.103c1.605,6.42,3.719,9.63-13.197,9.63c-17.299,0-57.603,0-68.659,0
		c-11.057,0-55.819-1.248-49.042-26.572c3.388,4.28,10.343,11.235,17.655,14.802c4.514,2.202,2.88,5.038,5.912,6.821
		c3.032,1.783,18.342,3.344,29.934,1.739C317.486,329.918,321.724,325.103,383.292,325.103z"/>
	<g>
		<path style="fill:#FCE179;" d="M372.181,331.952c6.481,0,10.162-0.473,12.155-1.415c-0.203,2.797-3.076,4.196-14.241,4.196
			c-17.034,0-56.376,0-68.132,0C314.632,332.683,355.52,331.952,372.181,331.952z"/>
	</g>
	<path style="fill:#030507;" d="M356.279,298.087c-11.313,0-23.393-15.719-26.637-17.962c1.636,0.38,3.359,1.163,5.142,2.534
		c2.899,2.23,14.7,13.955,22.292,13.732c18.19-0.535,17.968-11.933,21.4-10.165c0.327,0.168,0.887,0.746,1.568,1.651
		C376.343,286.428,376.366,298.087,356.279,298.087z"/>
	<path style="fill:#030507;" d="M320.291,308.055c-0.254-0.418-0.368-0.817-0.301-1.164c0.25-1.287,2.837-1.396,5.777-0.244
		s5.12,3.13,4.87,4.417c-0.043,0.221-0.16,0.405-0.331,0.556c-0.519,1.595-4.158,2.831-8.579,2.831
		c-4.776,0-8.648-1.443-8.648-3.222C313.079,309.632,316.2,308.31,320.291,308.055z"/>
	<path style="fill:#5D5D5D;" d="M319.962,284.375c-0.53,0.208-0.834,0.699-0.677,1.097l0.106,0.171
		c0.156,0.398,0.713,0.551,1.243,0.343l2.4-0.943c0.53-0.208,0.834-0.699,0.677-1.097l-0.106-0.171
		c-0.156-0.398-0.713-0.551-1.243-0.343L319.962,284.375z"/>
	<path style="fill:#5D5D5D;" d="M314.694,286.283c-0.53,0.208-0.834,0.699-0.678,1.097l0.106,0.171
		c0.156,0.398,0.713,0.551,1.243,0.343l2.401-0.943c0.53-0.208,0.834-0.699,0.677-1.097l-0.106-0.171
		c-0.156-0.398-0.713-0.551-1.243-0.343L314.694,286.283z"/>
	<path style="fill:#5D5D5D;" d="M309.35,288.235c-0.53,0.208-0.834,0.699-0.677,1.097l0.106,0.171
		c0.156,0.398,0.713,0.551,1.243,0.343l2.4-0.943c0.53-0.208,0.834-0.699,0.677-1.097l-0.106-0.171
		c-0.156-0.398-0.713-0.551-1.243-0.343L309.35,288.235z"/>
	<path style="fill:#5D5D5D;" d="M304.071,290.283c-0.53,0.208-0.834,0.699-0.677,1.097l0.106,0.171
		c0.156,0.398,0.713,0.551,1.243,0.343l2.4-0.943c0.53-0.208,0.834-0.699,0.677-1.097l-0.106-0.171
		c-0.156-0.398-0.713-0.551-1.243-0.343L304.071,290.283z"/>
	<path style="fill:#5D5D5D;" d="M298.998,292.117c-0.53,0.208-0.834,0.699-0.677,1.097l0.106,0.171
		c0.156,0.398,0.713,0.551,1.243,0.343l2.4-0.943c0.53-0.208,0.834-0.699,0.677-1.097l-0.106-0.171
		c-0.156-0.398-0.713-0.551-1.243-0.343L298.998,292.117z"/>
	<path style="fill:#030507;" d="M318.925,281.215c-0.437,0.171-0.686,0.576-0.558,0.904l1.334,3.101
		c0.129,0.328,0.587,0.454,1.023,0.283l1.977-0.776c0.437-0.171,0.686-0.576,0.558-0.904l-1.334-3.102
		c-0.129-0.327-0.587-0.454-1.023-0.283L318.925,281.215z"/>
	<path style="fill:#030507;" d="M313.56,283.237c-0.437,0.171-0.686,0.576-0.558,0.903l1.334,3.101
		c0.129,0.328,0.587,0.454,1.024,0.283l1.977-0.776c0.437-0.172,0.686-0.576,0.558-0.904l-1.334-3.101
		c-0.129-0.327-0.587-0.454-1.024-0.283L313.56,283.237z"/>
	<path style="fill:#030507;" d="M308.428,285.163c-0.437,0.172-0.686,0.576-0.558,0.904l1.334,3.101
		c0.129,0.327,0.587,0.454,1.023,0.283l1.977-0.776c0.437-0.171,0.686-0.576,0.558-0.903l-1.334-3.101
		c-0.129-0.328-0.587-0.454-1.023-0.283L308.428,285.163z"/>
	<path style="fill:#030507;" d="M303.064,287.185c-0.437,0.172-0.686,0.576-0.558,0.904l1.334,3.102
		c0.129,0.327,0.587,0.454,1.023,0.283l1.977-0.776c0.437-0.171,0.687-0.576,0.558-0.904l-1.334-3.101
		c-0.129-0.328-0.587-0.454-1.023-0.283L303.064,287.185z"/>
	<path style="fill:#030507;" d="M297.932,289.111c-0.437,0.171-0.686,0.576-0.558,0.904l1.334,3.101
		c0.129,0.328,0.587,0.454,1.024,0.283l1.977-0.776c0.437-0.172,0.686-0.576,0.558-0.904l-1.334-3.102
		c-0.129-0.327-0.587-0.454-1.024-0.283L297.932,289.111z"/>
	<g>
		<path style="fill:#5D5D5D;" d="M293.639,294.15c-0.53,0.208-0.834,0.7-0.678,1.097l0.106,0.171
			c0.156,0.398,0.713,0.551,1.243,0.343l2.401-0.943c0.53-0.208,0.834-0.699,0.677-1.097l-0.106-0.171
			c-0.156-0.398-0.713-0.551-1.243-0.343L293.639,294.15z"/>
		<path style="fill:#030507;" d="M292.567,291.133c-0.437,0.171-0.686,0.576-0.558,0.904l1.334,3.101
			c0.129,0.327,0.587,0.454,1.024,0.283l1.977-0.776c0.437-0.171,0.686-0.576,0.558-0.904l-1.334-3.101
			c-0.129-0.327-0.587-0.454-1.023-0.283L292.567,291.133z"/>
	</g>
	<g>
		<path style="fill:#5D5D5D;" d="M287.718,296.077c-0.548,0.157-0.896,0.617-0.779,1.028l0.089,0.181
			c0.117,0.411,0.657,0.617,1.204,0.46l2.479-0.71c0.548-0.157,0.896-0.617,0.779-1.028l-0.089-0.181
			c-0.118-0.411-0.657-0.617-1.205-0.46L287.718,296.077z"/>
		<path style="fill:#030507;" d="M286.939,292.971c-0.451,0.129-0.738,0.508-0.641,0.846l1.032,3.214
			c0.097,0.338,0.541,0.508,0.992,0.379l2.042-0.584c0.451-0.129,0.738-0.508,0.641-0.846l-1.032-3.214
			c-0.097-0.338-0.541-0.508-0.992-0.379L286.939,292.971z"/>
	</g>
	<g>
		<path style="fill:#5D5D5D;" d="M281.835,297.689c-0.557,0.12-0.936,0.555-0.846,0.973l0.077,0.186
			c0.09,0.418,0.614,0.659,1.171,0.54l2.521-0.542c0.557-0.12,0.936-0.555,0.846-0.973l-0.077-0.186
			c-0.09-0.418-0.614-0.659-1.171-0.54L281.835,297.689z"/>
		<path style="fill:#030507;" d="M281.265,294.538c-0.459,0.099-0.77,0.457-0.697,0.801l0.814,3.276
			c0.074,0.344,0.506,0.543,0.964,0.444l2.076-0.446c0.459-0.099,0.771-0.457,0.697-0.801l-0.814-3.276
			c-0.074-0.344-0.506-0.543-0.964-0.444L281.265,294.538z"/>
	</g>
</g>
<g>
	<g>
		<path style="fill:#D4555D;" d="M175.387,365.03c4.113-1.483,10.646,4.563,12.167,26.072c1.521,21.51-1.955,26.072-13.905,26.072
			c-11.95,0-16.295,0-19.554,0c-3.259,0-12.602-7.604-19.989-6.518c-7.387,1.086-16.73,8.473-31.721,8.473
			s-48.016-6.735-47.799-14.992c0.217-8.256,1.521-13.905,8.473-16.295c6.953-2.39,24.769-1.521,28.897-4.345
			c4.128-2.824,41.498-25.203,51.493-33.894c1.304-1.086,6.083,7.387,8.691,10.863C157.571,360.25,162.134,369.81,175.387,365.03z"
			/>
		<path style="fill:#22323F;" d="M166.644,367.981c-5.32-1.084-10.2-3.691-15.416-5.143c-4.854-1.352-9.412-1.688-14.003,0.643
			c-4.954,2.516-9.249,5.993-13.554,9.465c-4.745,3.826-9.619,7.561-15.275,9.958c-5.824,2.467-12.091,3.666-18.419,3.508
			c-2.833-0.071-5.635-0.362-8.407-0.816c4.643-0.396,8.683-0.932,10.387-2.099c4.128-2.825,41.498-25.203,51.493-33.894
			c1.304-1.086,6.083,7.387,8.691,10.863c5.432-0.217,9.994,9.343,23.248,4.563c1.769-0.638,3.984,0.122,6.057,2.9
			C176.497,368.043,171.499,368.971,166.644,367.981z"/>
		<path style="fill:#364A5D;" d="M80.458,407.243c10.048-0.747,19.379-4.023,27.059-10.69c4.198-3.644,7.897-7.784,11.812-11.718
			c3.967-3.986,8.093-7.994,12.325-11.699c4.383-3.839,9.182-7.026,15.167-7.343c6.342-0.336,13.133,0.526,19.043,2.937
			c8.706,3.551,15.746,9.859,21.212,17.361c0.19,1.571,0.353,3.233,0.479,5.011c1.521,21.51-1.955,26.072-13.905,26.072h-19.554
			c-3.259,0-12.602-7.604-19.989-6.518c-7.387,1.086-16.73,8.473-31.721,8.473c-14.962,0-47.884-6.709-47.797-14.943
			C63.061,406.864,72.102,407.865,80.458,407.243z"/>
		<path style="fill:#F9F9F9;" d="M187.554,393.978c-0.126-1.778-0.289-3.44-0.479-5.011c-5.466-7.502-12.507-13.809-21.212-17.361
			c-5.91-2.411-12.7-3.273-19.043-2.937c-5.984,0.317-10.783,3.505-15.167,7.343c-4.231,3.705-8.358,7.714-12.325,11.699
			c-3.915,3.934-7.615,8.074-11.812,11.718c-7.68,6.667-17.011,9.942-27.059,10.689c-7.755,0.577-16.094-0.263-24.027-2.524
			c-1.18-1.096-1.855-2.236-1.843-3.409c8.474,2.678,17.514,3.678,25.87,3.057c10.048-0.747,19.379-4.023,27.059-10.689
			c4.197-3.644,7.897-7.784,11.812-11.718c3.967-3.986,8.093-7.994,12.325-11.699c4.383-3.838,9.182-7.026,15.167-7.343
			c6.342-0.336,13.133,0.526,19.043,2.937c8.706,3.551,15.746,9.859,21.212,17.361c0.19,1.571,0.353,3.233,0.479,5.011
			c0.263,3.716,0.372,6.915,0.319,9.683C187.836,398.727,187.73,396.471,187.554,393.978z"/>
		<path style="fill:#22323F;" d="M61.979,406.313c8.865,4.49,19.261,6.086,29.1,6.46c5.863,0.223,11.983-0.229,17.565-2.15
			c5.181-1.782,9.59-4.864,14.171-7.784c5.101-3.251,10.185-5.656,16.321-5.897c7.287-0.286,14.395-0.165,21.633,0.774
			c8.666,1.124,18.903,1.407,27.015-2.664c0.807,18.126-2.956,22.122-14.135,22.122h-19.554c-3.259,0-12.602-7.604-19.989-6.518
			c-7.387,1.086-16.73,8.473-31.721,8.473s-48.016-6.735-47.799-14.992c0.027-1.036,0.072-2.032,0.142-2.984
			C56.828,403.222,59.288,404.95,61.979,406.313z"/>
		<g>
			<path style="fill:#030507;" d="M55.537,401.398c1.565,1.118,3.242,2.117,5.03,2.961c9.515,4.49,20.672,6.086,31.231,6.46
				c6.292,0.223,12.86-0.229,18.852-2.15c5.56-1.782,10.292-4.864,15.209-7.784c5.474-3.251,10.931-5.656,17.516-5.897
				c7.821-0.286,15.449-0.165,23.217,0.774c6.086,0.735,12.892,1.102,19.311,0.133c-7.775,3.172-17.019,4.186-25.029,3.147
				c-7.238-0.938-14.419-1.243-21.706-0.958c-6.136,0.241-11.253,1.503-16.353,4.754c-4.582,2.92-8.151,7.189-13.332,8.971
				c-5.583,1.92-11.703,2.372-17.565,2.149c-9.839-0.374-21.073-3.157-29.939-7.647c-2.304-1.167-4.422-2.616-6.306-4.303
				C55.625,401.807,55.578,401.603,55.537,401.398z"/>
		</g>
		<g>
			<path style="fill:#474747;" d="M54.722,401.249c0.002-0.031,0.004-0.065,0.006-0.096c0.394,0.388,0.813,0.753,1.232,1.117
				C55.535,401.943,55.126,401.6,54.722,401.249z"/>
			<path style="fill:#030507;" d="M102.253,417.465c8.96-0.187,15.206-1.48,20.359-2.766c-5.444,2.193-11.977,4.43-20.227,4.43
				c-12.863,0-38.999-4.958-46.026-11.581C64.54,413.643,89.661,417.728,102.253,417.465z"/>
			<path style="fill:#030507;" d="M154.76,414.414l19.856-0.414c6.374-0.133,10.373-1.477,12.51-5.835
				c-1.592,7.111-5.773,9.01-13.476,9.01h-19.554c-1.847,0-5.647-2.441-9.938-4.359C148.803,413.504,152.979,414.451,154.76,414.414
				z"/>
		</g>
	</g>
	<g>
		<path style="fill:#5D5D5D;" d="M137.108,356.594c-0.534,0.362-0.748,0.98-0.476,1.38l0.16,0.163
			c0.271,0.401,0.924,0.432,1.459,0.071l2.419-1.637c0.534-0.362,0.747-0.98,0.476-1.381l-0.16-0.163
			c-0.271-0.401-0.924-0.432-1.459-0.071L137.108,356.594z"/>
		<path style="fill:#5D5D5D;" d="M131.76,360.009c-0.534,0.362-0.748,0.98-0.476,1.381l0.16,0.163
			c0.271,0.401,0.924,0.432,1.459,0.071l2.419-1.637c0.534-0.362,0.747-0.98,0.476-1.381l-0.16-0.163
			c-0.271-0.401-0.924-0.432-1.459-0.071L131.76,360.009z"/>
		<path style="fill:#5D5D5D;" d="M126.339,363.493c-0.534,0.362-0.747,0.98-0.476,1.381l0.16,0.163
			c0.271,0.401,0.924,0.432,1.459,0.071l2.419-1.637c0.534-0.362,0.747-0.98,0.476-1.381l-0.16-0.163
			c-0.271-0.401-0.924-0.432-1.459-0.071L126.339,363.493z"/>
		<path style="fill:#5D5D5D;" d="M121.015,367.066c-0.534,0.362-0.748,0.98-0.476,1.381l0.16,0.163
			c0.271,0.401,0.924,0.432,1.459,0.071l2.419-1.637c0.534-0.362,0.747-0.98,0.476-1.381l-0.16-0.163
			c-0.271-0.401-0.924-0.432-1.459-0.071L121.015,367.066z"/>
		<path style="fill:#5D5D5D;" d="M115.864,370.352c-0.534,0.362-0.748,0.98-0.476,1.381l0.16,0.163
			c0.271,0.401,0.924,0.432,1.459,0.071l2.419-1.637c0.534-0.362,0.747-0.98,0.476-1.381l-0.16-0.163
			c-0.271-0.401-0.924-0.432-1.459-0.071L115.864,370.352z"/>
		<path style="fill:#F9F9F9;" d="M135.178,353.359c-0.44,0.298-0.616,0.807-0.392,1.137l2.243,3.096
			c0.223,0.33,0.761,0.356,1.201,0.058l1.992-1.348c0.44-0.298,0.616-0.807,0.392-1.137l-2.244-3.096
			c-0.223-0.33-0.761-0.356-1.201-0.058L135.178,353.359z"/>
		<path style="fill:#F9F9F9;" d="M129.752,356.925c-0.44,0.298-0.616,0.807-0.392,1.137l2.244,3.096
			c0.223,0.33,0.761,0.356,1.201,0.058l1.992-1.348c0.44-0.298,0.616-0.807,0.392-1.137l-2.244-3.096
			c-0.223-0.33-0.761-0.356-1.201-0.058L129.752,356.925z"/>
		<path style="fill:#F9F9F9;" d="M124.559,360.327c-0.44,0.298-0.616,0.807-0.392,1.137l2.244,3.096
			c0.223,0.33,0.761,0.356,1.201,0.058l1.992-1.348c0.44-0.298,0.616-0.807,0.392-1.137l-2.244-3.096
			c-0.223-0.33-0.761-0.356-1.201-0.058L124.559,360.327z"/>
		<path style="fill:#F9F9F9;" d="M119.132,363.893c-0.44,0.298-0.616,0.807-0.392,1.137l2.243,3.096
			c0.223,0.33,0.761,0.356,1.201,0.058l1.992-1.348c0.44-0.298,0.616-0.807,0.392-1.137l-2.244-3.096
			c-0.223-0.33-0.761-0.356-1.201-0.058L119.132,363.893z"/>
		<path style="fill:#F9F9F9;" d="M113.94,367.295c-0.44,0.298-0.616,0.807-0.392,1.137l2.243,3.096
			c0.223,0.33,0.761,0.356,1.201,0.058l1.992-1.348c0.44-0.298,0.616-0.807,0.392-1.137l-2.243-3.096
			c-0.223-0.33-0.761-0.356-1.201-0.058L113.94,367.295z"/>
		<path style="fill:#5D5D5D;" d="M114.008,373.906c0.534-0.362,0.747-0.98,0.476-1.381l-0.16-0.163
			c-0.271-0.401-0.924-0.432-1.459-0.071l-2.419,1.637c-0.534,0.362-0.748,0.98-0.476,1.381l0.16,0.163
			c0.271,0.401,0.924,0.432,1.459,0.071L114.008,373.906z"/>
		<path style="fill:#F9F9F9;" d="M108.513,370.861c-0.44,0.298-0.616,0.807-0.392,1.137l2.243,3.096
			c0.223,0.33,0.761,0.356,1.201,0.058l1.992-1.348c0.44-0.298,0.616-0.807,0.392-1.137l-2.244-3.096
			c-0.223-0.33-0.761-0.356-1.201-0.058L108.513,370.861z"/>
		<g>
			<path style="fill:#5D5D5D;" d="M104.382,377.527c-0.566,0.309-0.838,0.904-0.606,1.329l0.143,0.178
				c0.232,0.425,0.879,0.518,1.445,0.209l2.564-1.4c0.566-0.309,0.838-0.904,0.606-1.329l-0.144-0.177
				c-0.232-0.425-0.879-0.519-1.445-0.209L104.382,377.527z"/>
			<path style="fill:#F9F9F9;" d="M102.75,374.289c-0.466,0.255-0.69,0.745-0.499,1.094l1.938,3.296
				c0.191,0.35,0.724,0.427,1.19,0.172l2.111-1.152c0.466-0.255,0.69-0.745,0.499-1.094l-1.938-3.296
				c-0.191-0.35-0.724-0.427-1.19-0.173L102.75,374.289z"/>
		</g>
		<path style="fill:#5D5D5D;" d="M99.147,382.547l2.652-1.224c0.586-0.271,0.896-0.846,0.693-1.285l-0.131-0.187
			c-0.203-0.439-0.842-0.576-1.428-0.306l-2.652,1.224c-0.586,0.271-0.896,0.846-0.693,1.285l0.131,0.187
			C97.922,382.681,98.562,382.818,99.147,382.547C99.147,382.547,98.562,382.818,99.147,382.547z"/>
		<path style="fill:#F9F9F9;" d="M96.87,377.429c-0.482,0.223-0.738,0.697-0.571,1.058l1.713,3.418
			c0.167,0.362,0.694,0.474,1.176,0.252l2.184-1.008c0.482-0.223,0.738-0.697,0.571-1.058l-1.713-3.418
			c-0.167-0.362-0.694-0.475-1.176-0.252L96.87,377.429z"/>
	</g>
	<path style="fill:#4D677C;" d="M115.548,412.289c10.824-2.13,19.312-11.332,27.93-9.417c8.618,1.915,40.523,5.904,44.354-0.639
		c-0.798,4.309-2.379,9.577-18.339,8.46c-15.96-1.117-24.738-3.831-30.324-3.511C133.582,407.5,121.612,412.767,115.548,412.289z"/>
</g>
<g>
	<g>
		<path style="fill:#DE5C47;" d="M262.552,412.171c10.665,0.261,14.587,3.067,16.642,2.141c0.579-0.584,1.609-1.167,3.515-1.167
			c2.26,0,3.224,0.857,3.678,1.668c0.607-0.643,1.716-1.227,3.797-1.227c2.024,0,3.115,0.587,3.717,1.276
			c0.143-0.167,0.333-0.327,0.586-0.476c0.633-0.374,1.522-0.58,2.505-0.58c2.411,0,3.544,1.038,4.254,1.972
			c0.281-1.088,1.148-2.412,4.156-2.412c2.761,0,4.019,1.201,4.754,2.225c0.35-1.077,1.35-2.372,4.457-2.372
			c3.294,0,4.69,1.518,5.51,2.641c0.312-1.249,1.008-3.228,4.502-3.228c3.055,0,4.419,1.631,5.393,2.909
			c0.18-1.439,0.773-3.533,4.552-3.533c3.399,0,4.939,1.938,6.177,3.495c0.156,0.196,0.345,0.435,0.548,0.674
			c0.003-0.101,0.006-0.197,0.008-0.284c0.034-1.396,0.098-3.996,4.147-3.996c2.962,0,4.78,1.627,6.706,3.349
			c0.202,0.181,0.439,0.392,0.69,0.61c-0.552-1.956-1.228-4.382,2.471-4.937c4.131-0.62,7.588,1.78,8.342,2.482
			c1.073,0.999,2.08,2.02,3.345,2.202c4.744,0.685-5.323-6.271,8.615-5.561c0,0,5.72,6.289,4.904,7.807
			c-1.074,1.999-11.478,1.869-16.531,1.142c-2.091-0.301-4.658-2.888-5.598-3.835c-0.196-0.197-0.443-0.446-0.698-0.685
			c0.08,0.341,0.178,0.689,0.255,0.963c0.302,1.07,1.408,2.277,0.353,2.858c-1.791,0.986-5.323,1.126-7.901,0.564
			c-1.366-0.298-1.806-1.375-2.644-2.124c-0.356-0.319-0.823-0.736-1.284-1.113c-0.004,0.112-0.007,0.217-0.009,0.311
			c-0.022,0.899,0.586,2.629-1.085,3.198c-1.768,0.602-4.323,0.668-6.373,0.262c-1.746-0.345-2.23-1.797-2.99-2.753
			c-0.229-0.288-0.529-0.666-0.836-1.008c-0.024,0.189-0.042,0.372-0.057,0.525c-0.087,0.889,0.268,2.687-1.547,3.101
			c-1.679,0.383-3.864,0.325-5.682-0.082c-1.535-0.344-1.92-1.592-2.514-2.376c-0.063-0.083-0.134-0.176-0.209-0.274
			c-0.186,0.777-0.033,2.261-1.625,2.691c-1.773,0.479-3.934,0.485-5.622,0.194c-1.533-0.264-1.878-1.479-2.36-2.168
			c-0.113-0.162-0.269-0.385-0.435-0.596c-0.007,0.061-0.012,0.118-0.017,0.17c-0.071,0.719,0.089,2.497-1.932,2.84
			c-1.568,0.266-3.353,0.209-4.864-0.085c-1.274-0.248-1.739-1.143-2.192-1.776c-0.147,0.576-0.463,1.219-1.18,1.691
			c-2.147-0.061-4.253-0.135-6.31-0.22c-0.205-0.134-0.395-0.274-0.563-0.421c-0.141,0.13-0.31,0.255-0.508,0.375
			c-2.474-0.108-4.876-0.234-7.195-0.375c-0.197-0.211-0.346-0.434-0.459-0.654c-0.217,0.207-0.494,0.404-0.842,0.573
			c-2.153-0.139-4.232-0.29-6.225-0.456c-0.288-0.238-0.505-0.499-0.667-0.759c-0.367,0.231-0.835,0.435-1.428,0.578
			c-1.495-0.135-12.447-0.723-16.441-1.218C259.121,416.265,262.552,412.171,262.552,412.171z"/>
		<path style="fill:#364A5D;" d="M375.075,399.89c0,0,0.546-36.608-5.191-40.706c-5.737-4.098-13.285-0.987-20.935-4.811
			c-7.649-3.825-9.522-11.183-12.517-4.464c-5.452,12.232-15.489,23.899-31.313,32.43c-24.461,13.189-49.996,9.628-47.528,24.38
			c14.762,7.103,15.035,5.737,21.592,6.557c6.557,0.82,22.948,4.098,26.773,2.732s8.742-3.825,10.381-0.273
			c1.639,3.551,7.649-5.464,9.835-1.093c2.186,4.371,6.83-7.103,11.747,0.546c4.918,7.649,5.464-8.469,10.655-0.82
			c5.191,7.649,7.649-9.835,12.84-3.278c5.191,6.557,14.206,7.103,13.386,0.273C373.983,404.535,375.075,399.89,375.075,399.89z"/>
		<path style="fill:#00C5AD;" d="M367.79,383.59l-0.729,3.278c-71.434,0.531-73.58,28.776-73.58,28.776s-7.649-1.457-13.842-6.192
			C290.568,376.669,367.79,383.59,367.79,383.59z"/>
		<path style="fill:#FCE179;" d="M261.523,397.83c2.518,2.074,5.841,3.316,8.856,4.224c5.495,1.654,11.075,2.617,16.8,2.977
			c4.129,0.259,8.392,0.387,12.398,1.516c4.079,1.149,6.702,3.288,9.226,6.646c0.348,0.463,0.684,0.933,1.024,1.401
			c-1.307,0.428-2.645,0.977-3.871,1.415c-3.825,1.366-20.216-1.912-26.773-2.732c-6.557-0.819-6.83,0.546-21.592-6.556
			C256.897,402.565,258.425,399.863,261.523,397.83z"/>
		<path style="fill:#38B4D7;" d="M352.856,395.246c-6.557-2.186-35.697-22.584-48.082-13.478c-5.464,3.278-10.928,5.1-10.928,5.1
			s48.446,6.921,57.553,12.385C360.505,404.717,352.856,395.246,352.856,395.246z"/>
		<path style="fill:#00C5AD;" d="M365.212,384.675l-0.146,2.161c-45.509,7.272-44.136,25.495-44.136,25.495s-5.02-0.187-9.429-2.606
			C315.289,387.756,365.212,384.675,365.212,384.675z"/>
		<path style="fill:#DE5C47;" d="M343.568,399.014c6.657-5.196,13.921-9.944,19.692-16.165c2.368-2.553,3.983-5.289,5.141-8.575
			c1.14-3.233,1.936-6.584,3.166-9.785c0.172-0.447,0.355-0.895,0.548-1.34c5.842,16.929,2.96,36.742,2.96,36.742
			s-1.093,4.644-0.273,11.474c0.82,6.83-8.196,6.283-13.386-0.273c-5.191-6.557-7.65,10.928-12.84,3.278
			c-5.191-7.649-5.737,8.469-10.655,0.82c-4.917-7.649-9.562,3.825-11.747-0.546c-0.15-0.301-0.32-0.532-0.504-0.715
			C331.479,408.772,337.447,403.793,343.568,399.014z"/>
		<path style="fill:#FCE179;" d="M377.534,403.169c-1.093-3.825-2.459-4.918-8.469-3.552c-6.01,1.366-60.922,4.918-67.479,11.747
			c9.289,4.098,10.503,3.917,16.392,3.825c5.889-0.092,16.938-4.917,19.397-1.912c2.459,3.005,5.784,4.803,6.58,0.626
			c0.796-4.178,4.621-2.265,6.533,0.74c1.912,3.005,6.557,0.273,6.01-4.098s1.366-3.552,4.918,0.546
			c3.551,4.098,14.479,7.376,14.206,1.912C375.349,407.54,377.534,403.169,377.534,403.169z"/>
		<path style="fill:#F98268;" d="M257.593,406.72c11.288,0.502,15.439,5.903,17.614,4.12c0.613-1.125,1.703-2.247,3.721-2.247
			c2.392,0,3.413,1.65,3.892,3.21c0.643-1.237,1.817-2.362,4.019-2.362c2.142,0,3.297,1.13,3.934,2.456
			c0.151-0.321,0.353-0.629,0.62-0.917c0.67-0.72,1.611-1.116,2.651-1.116c2.552,0,3.751,1.997,4.502,3.795
			c0.298-2.094,1.215-4.642,4.399-4.642c2.922,0,4.253,2.312,5.031,4.281c0.371-2.073,1.429-4.564,4.717-4.564
			c3.487,0,4.964,2.921,5.831,5.083c0.33-2.404,1.067-6.214,4.765-6.214c3.233,0,4.677,3.138,5.708,5.598
			c0.191-2.769,0.818-6.799,4.818-6.799c3.598,0,5.228,3.73,6.537,6.726c0.165,0.377,0.366,0.837,0.579,1.298
			c0.003-0.195,0.006-0.379,0.008-0.546c0.036-2.688,0.103-7.69,4.39-7.69c3.135,0,5.06,3.131,7.097,6.445
			c0.214,0.348,0.464,0.754,0.73,1.174c-0.585-3.764-1.299-8.434,2.616-9.501c4.373-1.193,8.032,3.426,8.829,4.777
			c1.135,1.924,2.202,3.887,3.54,4.238c5.021,1.318-5.634-12.069,9.119-10.703c0,0,6.054,12.104,5.191,15.026
			c-1.137,3.848-12.148,3.597-17.497,2.198c-2.213-0.579-4.93-5.559-5.925-7.38c-0.208-0.38-0.469-0.858-0.739-1.317
			c0.084,0.657,0.188,1.325,0.27,1.854c0.32,2.06,1.49,4.383,0.373,5.5c-1.896,1.897-5.634,2.166-8.363,1.085
			c-1.446-0.573-1.911-2.646-2.798-4.089c-0.377-0.614-0.871-1.417-1.36-2.142c-0.004,0.214-0.007,0.418-0.01,0.599
			c-0.023,1.731,0.62,5.06-1.148,6.155c-1.872,1.159-4.575,1.285-6.745,0.505c-1.849-0.664-2.361-3.459-3.164-5.298
			c-0.242-0.554-0.56-1.282-0.885-1.94c-0.025,0.363-0.044,0.717-0.06,1.011c-0.092,1.711,0.284,5.171-1.638,5.967
			c-1.777,0.737-4.089,0.626-6.014-0.158c-1.625-0.662-2.032-3.064-2.661-4.574c-0.067-0.16-0.141-0.339-0.221-0.528
			c-0.197,1.495-0.035,4.352-1.72,5.18c-1.877,0.922-4.164,0.934-5.951,0.374c-1.622-0.509-1.988-2.845-2.498-4.173
			c-0.12-0.312-0.284-0.74-0.46-1.147c-0.007,0.117-0.013,0.227-0.018,0.327c-0.075,1.385,0.094,4.807-2.046,5.465
			c-1.66,0.511-3.549,0.402-5.148-0.164c-1.348-0.477-1.84-2.201-2.32-3.418c-0.155,1.108-0.49,2.346-1.249,3.254
			c-2.273-0.118-4.501-0.259-6.678-0.423c-0.217-0.257-0.418-0.527-0.596-0.809c-0.149,0.25-0.328,0.491-0.537,0.721
			c-2.619-0.209-5.161-0.45-7.615-0.722c-0.209-0.407-0.366-0.836-0.486-1.259c-0.229,0.399-0.523,0.777-0.891,1.102
			c-2.279-0.267-4.479-0.559-6.588-0.877c-0.305-0.458-0.534-0.96-0.706-1.462c-0.388,0.445-0.884,0.838-1.511,1.113
			c-1.582-0.259-13.174-1.392-17.402-2.345C253.962,414.6,257.593,406.72,257.593,406.72z"/>
		<path style="fill:#DE5C47;" d="M265.229,412.821c5.797,1.565,30.941,4.819,32.387,6.184c0.513,0.485,0.964,1.02,1.368,1.589
			c-1.079-0.069-2.149-0.143-3.205-0.222c-0.217-0.257-0.418-0.527-0.596-0.809c-0.149,0.25-0.328,0.491-0.537,0.721
			c-2.619-0.209-5.161-0.45-7.615-0.722c-0.209-0.407-0.366-0.836-0.486-1.259c-0.229,0.399-0.523,0.777-0.891,1.102
			c-2.279-0.267-4.479-0.559-6.588-0.877c-0.305-0.458-0.534-0.96-0.706-1.462c-0.388,0.445-0.884,0.838-1.511,1.113
			c-1.582-0.259-13.174-1.392-17.402-2.345c-3.993-0.9-3.155-5.318-2.404-7.656C259.177,410.492,262.092,411.974,265.229,412.821z"
			/>
	</g>
	<path style="fill:#FCE179;" d="M340.309,403.482c-0.509-0.387-3.056,0.349-3.585-0.009c1.526-1.232,5.092-3.563,6.638-4.77
		c6.657-5.197,13.921-9.944,19.692-16.165c2.368-2.553,3.983-5.289,5.141-8.575c1.14-3.233,1.936-6.584,3.166-9.785
		c0.172-0.447,0.355-0.895,0.548-1.34c0.152,0.44,0.294,0.882,0.434,1.325c-1.083,3.736-2.318,8.922-3.19,11.396
		c-1.159,3.286-2.773,6.022-5.141,8.575c-5.771,6.221-13.035,10.969-19.692,16.165C342.973,401.349,341.639,402.412,340.309,403.482
		z"/>
	<g>
		<path style="fill:#F98268;" d="M336.774,364.657c-4.683,5.99-10.043,11.544-16.246,15.976c-5.852,4.181-12.417,7.468-19.479,8.995
			c-5.555,1.201-11.6,1.772-17.155,0.923c7.179-3.575,12.433-3.902,18.631-6.9c16.183-7.828,24.992-18.594,29.365-24.509
			c4.373-5.915,6.496-11.209,13.772-6.713c0.971,0.6,2.083,1.253,3.287,1.943C343.365,355.612,340.134,360.359,336.774,364.657z"/>
		<g>
			<path style="fill:#474747;" d="M300.78,386.832c-0.694,0.355-1.04,1.065-0.774,1.585l0.167,0.219
				c0.266,0.521,1.045,0.655,1.738,0.3l3.141-1.607c0.694-0.355,1.04-1.065,0.774-1.585l-0.167-0.219
				c-0.266-0.521-1.045-0.655-1.738-0.3L300.78,386.832z"/>
			<g>
				<path style="fill:#474747;" d="M332.955,362.677c-0.48,0.614-0.495,1.404-0.035,1.763l0.244,0.128
					c0.461,0.36,1.223,0.154,1.703-0.46l2.172-2.779c0.48-0.614,0.495-1.404,0.035-1.764l-0.244-0.128
					c-0.461-0.36-1.223-0.154-1.703,0.46L332.955,362.677z"/>
				<path style="fill:#F9F9F9;" d="M329.759,359.74c-0.395,0.506-0.408,1.156-0.029,1.452l3.504,2.662
					c0.379,0.296,1.007,0.127,1.402-0.379l1.788-2.289c0.395-0.506,0.408-1.156,0.029-1.452l-3.504-2.662
					c-0.379-0.296-1.007-0.127-1.402,0.379L329.759,359.74z"/>
			</g>
			<g>
				<path style="fill:#474747;" d="M326.799,368.373c-0.532,0.569-0.617,1.355-0.19,1.754l0.232,0.149
					c0.427,0.399,1.205,0.261,1.737-0.308l2.409-2.578c0.532-0.57,0.617-1.355,0.19-1.754l-0.232-0.149
					c-0.427-0.399-1.205-0.261-1.737,0.308L326.799,368.373z"/>
				<path style="fill:#F9F9F9;" d="M324.486,365.904c-0.438,0.469-0.508,1.116-0.156,1.444l2.593,2.421
					c0.352,0.329,0.992,0.215,1.43-0.254l1.983-2.123c0.438-0.469,0.508-1.116,0.156-1.444l-2.593-2.421
					c-0.352-0.329-0.992-0.215-1.43,0.254L324.486,365.904z"/>
			</g>
			<g>
				<path style="fill:#474747;" d="M321.182,374.307c-0.564,0.538-0.694,1.317-0.29,1.74l0.223,0.162
					c0.404,0.423,1.188,0.329,1.752-0.209l2.552-2.436c0.564-0.538,0.694-1.317,0.29-1.74l-0.223-0.162
					c-0.404-0.423-1.188-0.329-1.752,0.209L321.182,374.307z"/>
				<path style="fill:#F9F9F9;" d="M318.864,371.138c-0.464,0.443-0.571,1.085-0.239,1.433l2.856,2.993
					c0.332,0.348,0.978,0.271,1.443-0.172l2.102-2.006c0.464-0.443,0.571-1.085,0.239-1.433l-2.856-2.993
					c-0.332-0.348-0.978-0.271-1.443,0.172L318.864,371.138z"/>
			</g>
			<g>
				<path style="fill:#474747;" d="M315.301,379.451c-0.624,0.467-0.846,1.225-0.495,1.693l0.202,0.188
					c0.35,0.468,1.14,0.469,1.764,0.002l2.824-2.114c0.624-0.467,0.846-1.225,0.496-1.693l-0.202-0.188
					c-0.35-0.468-1.14-0.469-1.764-0.002L315.301,379.451z"/>
				<path style="fill:#F9F9F9;" d="M313.048,375.851c-0.514,0.385-0.697,1.009-0.408,1.394l2.684,3.487
					c0.288,0.385,0.939,0.386,1.453,0.001l2.326-1.741c0.514-0.385,0.697-1.009,0.408-1.394l-2.684-3.487
					c-0.289-0.385-0.939-0.386-1.453-0.001L313.048,375.851z"/>
			</g>
			<g>
				<path style="fill:#474747;" d="M308.319,383.545c-0.679,0.383-0.997,1.106-0.71,1.615l0.176,0.212
					c0.287,0.509,1.07,0.612,1.749,0.229l3.073-1.733c0.679-0.383,0.996-1.106,0.709-1.615l-0.176-0.212
					c-0.287-0.509-1.07-0.612-1.749-0.229L308.319,383.545z"/>
				<path style="fill:#F9F9F9;" d="M306.651,379.954c-0.559,0.315-0.821,0.911-0.584,1.33l2.049,3.669
					c0.236,0.419,0.881,0.504,1.44,0.189l2.531-1.427c0.559-0.315,0.821-0.911,0.584-1.33l-2.049-3.669
					c-0.236-0.419-0.881-0.504-1.44-0.189L306.651,379.954z"/>
			</g>
			<path style="fill:#F9F9F9;" d="M299.386,383.63c-0.571,0.292-0.857,0.877-0.638,1.305l1.762,3.281
				c0.219,0.429,0.86,0.539,1.432,0.247l2.586-1.323c0.571-0.292,0.857-0.877,0.638-1.305l-1.762-3.281
				c-0.219-0.429-0.86-0.539-1.432-0.247L299.386,383.63z"/>
		</g>
	</g>
</g>
<g>
	<g>
		<g>
			<g>
				<path style="fill:#E2E4E6;" d="M188.024,69.969c0,0,2.325,9.068,1.163,14.416c-1.163,5.348-8.836,7.906-30.693,7.906
					c-21.857,0-83.708,2.558-93.242-0.465c-9.534-3.023-16.343-6.49-9.534-19.532C91.062,75.782,188.024,69.969,188.024,69.969z"/>
				<path style="fill:#FCE179;" d="M182.909,32.231c4.586-0.9,5.418,14.307,5.186,38.024c-5.115,0.93-30.764,3.201-43.32,4.364
					c-12.556,1.163-33.251,6.046-47.202,5.813c-13.951-0.232-39.064-0.698-42.784-6.278c0.93-5.348,3.72-8.371,8.371-8.603
					c4.651-0.232,22.09-5.813,35.809-13.951c13.719-8.138,32.088-20.229,35.576-22.322c3.174-1.904,18.667,27.333,39.122,10.301
					C175.689,37.894,179.192,32.961,182.909,32.231z"/>
				<path style="fill:#92C266;" d="M140.64,33.992c6.467,6.396,17.167,15.996,30.101,7.735c4.64,16.389,11.154,5.198,17.356,16.349
					c0.046,3.741,0.04,7.815-0.003,12.18c-4.733,0.861-27.037,2.869-40.292,4.085c0.518-10.88-1.152-21.737-12.274-36.243
					C137.211,36.703,138.919,35.339,140.64,33.992z"/>
				<path style="fill:#92C266;" d="M97.573,80.433c-13.951-0.232-39.064-0.698-42.784-6.278c0.622-3.579,2.082-6.11,4.371-7.467
					c54.11,11.124,46.534-6.418,45.344-9.752c0,0,4.549-0.718,11.012-5.267c-1.938,12.794,17.438,11.792,17.564,24.54
					C121.502,78.054,107.749,80.602,97.573,80.433z"/>
				<path style="fill:#FFFFFF;" d="M58.508,67.14c11.92,2.884,22.359,4.155,29.506,4.156h0.002c8.908,0,14.672-1.782,17.13-5.297
					c1.68-2.402,1.494-5.05,1.016-7.016c0.294-0.126,0.585-0.259,0.878-0.386c0.776,3.102,0.412,5.775-1.109,7.95
					c-2.648,3.785-8.675,5.705-17.914,5.705c-7.975-0.001-20.024-1.516-30.366-4.383C58.048,67.429,58.508,67.14,58.508,67.14z"/>
				<g>
					<path style="fill:#92C266;" d="M90.938,55.903c2.735-1.332,5.448-2.772,8.029-4.303c0.55-0.326,1.109-0.66,1.672-0.998
						c0.91,1.227,3.812,0.473,6.816-1.326c7.471-4.477,24.65-14.282,30.116-18.302c1.632,1.391,3.151,3.232,5.997,5.808
						c-6.864,4.163-29.13,17.667-35.315,21.431C101.88,62.092,96.109,61.874,90.938,55.903z"/>
				</g>
				<g>
					<g>
						<path style="fill:#FFFFFF;" d="M91.721,55.504c0.316-0.157,0.628-0.321,0.943-0.481c2.185,2.547,5.604,3.875,7.611,3.875
							c2.103,0,4.452-0.781,6.982-2.322c5.403-3.288,25.792-15.605,34.893-21.122c0.23,0.221,0.47,0.448,0.721,0.682
							c-9.155,5.547-29.664,17.94-35.116,21.258c-2.682,1.633-5.199,2.461-7.48,2.461h0C97.886,59.856,94.934,59.223,91.721,55.504z
							"/>
					</g>
					<g>
						<path style="fill:#FFFFFF;" d="M139.065,32.374c-5.093,3.389-16.256,10.09-23.466,14.321
							c-2.785,1.635-5.279,3.098-7.158,4.224c-2.368,1.419-4.597,2.2-6.277,2.2c-0.549,0-1.892-0.028-3.16-1.54
							c0.315-0.187,0.637-0.38,0.957-0.571c0.847,1.004,1.737,1.154,2.203,1.154c1.508,0,3.563-0.733,5.785-2.065
							c1.885-1.129,4.388-2.598,7.166-4.228c7.158-4.2,18.01-10.708,23.25-14.176C138.593,31.909,138.827,32.137,139.065,32.374z"/>
					</g>
				</g>
				<g>
					<path style="fill:#F9F9F9;" d="M129.466,30.746c-0.44,0.294-0.558,0.888-0.265,1.328l4.217,6.186
						c0.294,0.44,0.888,0.558,1.328,0.265l1.991-1.329c0.44-0.294,0.558-0.888,0.265-1.328l-4.217-6.186
						c-0.294-0.44-0.888-0.558-1.328-0.265L129.466,30.746z"/>
					<path style="fill:#F9F9F9;" d="M124.026,34.237c-0.44,0.294-0.558,0.888-0.265,1.328l4.217,6.186
						c0.294,0.44,0.888,0.558,1.328,0.265l1.991-1.329c0.44-0.294,0.558-0.888,0.265-1.328l-4.217-6.186
						c-0.294-0.44-0.888-0.558-1.328-0.265L124.026,34.237z"/>
					<path style="fill:#F9F9F9;" d="M118.818,37.564c-0.44,0.294-0.558,0.888-0.265,1.328l4.217,6.186
						c0.294,0.44,0.888,0.558,1.328,0.265l1.991-1.329c0.44-0.294,0.558-0.888,0.265-1.328l-4.217-6.186
						c-0.294-0.44-0.888-0.558-1.328-0.265L118.818,37.564z"/>
					<path style="fill:#F9F9F9;" d="M113.378,41.054c-0.44,0.294-0.558,0.888-0.265,1.328l4.217,6.186
						c0.294,0.44,0.888,0.558,1.328,0.265l1.991-1.329c0.44-0.294,0.558-0.888,0.265-1.328l-4.217-6.186
						c-0.294-0.44-0.888-0.558-1.328-0.265L113.378,41.054z"/>
					<path style="fill:#F9F9F9;" d="M108.171,44.381c-0.44,0.294-0.558,0.888-0.265,1.328l4.217,6.186
						c0.294,0.44,0.888,0.558,1.328,0.265l1.991-1.329c0.44-0.294,0.558-0.888,0.265-1.328l-4.217-6.186
						c-0.294-0.44-0.888-0.558-1.328-0.265L108.171,44.381z"/>
					<path style="fill:#F9F9F9;" d="M102.731,47.872c-0.44,0.294-0.558,0.888-0.265,1.328l4.217,6.186
						c0.294,0.44,0.888,0.558,1.328,0.265l1.991-1.329c0.44-0.294,0.558-0.888,0.265-1.328l-4.217-6.186
						c-0.294-0.44-0.888-0.558-1.328-0.265L102.731,47.872z"/>
				</g>
			</g>
			<path style="fill:#DE5C47;" d="M97.573,81.922c13.951,0.233,34.646-4.65,47.202-5.813c12.556-1.163,38.526-3.488,43.641-4.418
				l0.256,1.29c-5.116,0.93-31.341,3.306-43.898,4.469c-12.556,1.163-33.251,6.046-47.202,5.813
				c-13.951-0.232-39.938-1.271-43.658-6.851c0.064-0.368,0.269-0.734,0.421-1.154C58.689,80.576,83.855,81.693,97.573,81.922z"/>
			<path style="fill:#FFFFFF;" d="M188.12,60.683c-2.297-4.942-6.458-6.32-8.654-6.738c-3.291-0.627-7.001-1.338-9.82-9.329
				c0.269-0.203,0.543-0.396,0.82-0.58c2.644,7.7,5.961,8.355,9.179,8.968c2.166,0.412,5.017,0.605,8.46,5.907
				C188.111,59.496,188.117,60.082,188.12,60.683z"/>
			<path style="fill:#5D5D5D;" d="M173.665,39.579c2.024-1.685,5.526-6.618,9.244-7.347c1.685-0.331,2.861,1.519,3.666,5.159
				c-1.596,0.247-5.222-1.188-7.858,1.591c-5.098,5.375-19.164,16.599-34.801-1.887C151.025,43.432,161.462,49.74,173.665,39.579z"
				/>
		</g>
		<path style="fill:#5D5D5D;" d="M65.252,89.534c9.533,3.023,71.385,0.465,93.242,0.465s29.531-2.558,30.693-7.906
			c0.166-0.761,0.254-1.602,0.295-2.477c0.072,1.692,0.011,3.361-0.295,4.77c-1.162,5.348-8.836,7.906-30.693,7.906
			s-83.708,2.558-93.242-0.465c-7.278-2.308-12.96-4.88-12.216-11.768C53.674,85.265,58.844,87.502,65.252,89.534z"/>
	</g>
	<g>
		<path style="fill:#FFFFFF;" d="M122.849,65.797c3.737,2.378,8.14,4.944,8.673,10.661c0.323-0.052,0.639-0.102,0.958-0.153
			c-1.228-7-5.276-8.872-9.118-11.316c-4.071-2.59-8.486-5.459-8.984-10.699c-0.289,0.219-0.578,0.438-0.868,0.656
			C114.518,60.687,118.919,63.297,122.849,65.797z"/>
		<path style="fill:#FFFFFF;" d="M148.921,74.238c0.313-0.029,0.628-0.057,0.949-0.087c0.359-12.175-1.974-22.159-11.172-34.977
			c-0.246,0.198-0.496,0.392-0.74,0.592C146.86,52.171,149.354,62.631,148.921,74.238z"/>
	</g>
	<path style="fill:#DE5C47;" d="M134.089,48.478c0.407-0.049,0.808-0.057,1.206-0.045l-0.001-0.009
		c16.16,0.474,31.233,0.916,36.431,1.069l0,0.003c1.266,0.036,2.349,0.99,2.505,2.285c0.156,1.295-0.669,2.479-1.89,2.815l0,0.003
		c-5.013,1.384-19.548,5.396-35.133,9.698l-0.001-0.009c-0.383,0.105-0.775,0.193-1.182,0.242c-4.432,0.535-8.459-2.625-8.993-7.058
		C126.496,53.039,129.656,49.012,134.089,48.478z"/>
	<g>
		<path style="fill:#5D5D5D;" d="M127.981,57.356c0.432,3.577,3.468,6.274,7.063,6.274h0c0.285,0,0.574-0.017,0.864-0.052
			c0.318-0.038,0.649-0.106,1.042-0.214l1.04-0.287l0.001,0.009l33.294-9.19l0.799-0.224c0.777-0.214,1.29-0.978,1.193-1.777
			c-0.097-0.799-0.776-1.419-1.581-1.442l-0.79-0.022l-0.001-0.004l-34.679-1.017l-1.235-0.024c-0.261,0-0.525,0.012-0.791,0.044
			C130.302,49.899,127.511,53.456,127.981,57.356z M134.316,50.38c0.228-0.027,0.453-0.037,0.658-0.037l1.226,0.024l33.859,0.993
			l0.001,0.005l1.612,0.046c0.329,0.008,0.618,0.272,0.657,0.599c0.039,0.326-0.179,0.651-0.502,0.74l-0.794,0.223l-32.253,8.903
			l-0.001-0.009l-2.081,0.574c-0.347,0.095-0.633,0.154-0.904,0.187c-0.251,0.03-0.501,0.045-0.748,0.045
			c-3.111,0-5.739-2.335-6.113-5.431C128.525,53.865,130.94,50.787,134.316,50.38z"/>
	</g>
</g>
</svg>
